<svg xmlns="http://www.w3.org/2000/svg" width="1056" height="992" viewBox="0 0 1056 992">
<g>
<path d="M 516.82 411.11 C512.87,411.45 509.33,411.47 497.75,411.22 L 485.00 410.94 L 485.00 393.97 C485.00,382.63 485.35,377.00 486.07,377.00 C487.44,377.00 517.39,407.76 517.82,409.61 C518.00,410.37 517.55,411.05 516.82,411.11 Z" fill="rgb(3,102,154)"/>
<path d="M 656.82 608.39 C650.59,608.71 621.13,609.18 591.34,609.42 C540.41,609.83 537.09,609.75 535.58,608.08 C534.16,606.52 534.00,602.84 534.23,577.94 L 534.50 549.58 L 537.90 547.29 C539.77,546.03 542.17,545.00 543.24,545.00 C547.41,545.00 556.33,535.25 555.47,531.63 C555.19,530.46 555.32,527.49 555.76,525.02 C556.48,520.92 557.00,520.29 562.02,517.50 C567.23,514.60 567.57,514.16 568.87,508.72 C570.08,503.64 570.04,502.41 568.52,497.75 C567.59,494.86 566.11,491.70 565.24,490.73 C564.23,489.60 563.60,486.83 563.49,483.04 C563.36,478.30 562.79,476.41 560.62,473.57 C557.25,469.15 553.90,468.20 549.33,470.38 C547.43,471.29 545.28,471.68 544.56,471.26 C543.84,470.84 540.89,467.35 538.00,463.50 C535.11,459.65 532.35,456.35 531.87,456.17 C530.71,455.72 530.75,453.00 531.92,453.00 C532.91,453.00 533.79,445.63 534.46,431.76 C534.91,422.27 533.48,387.75 532.50,384.49 C532.12,383.23 532.61,381.72 533.83,380.41 C537.20,376.79 555.38,375.81 597.50,376.99 C649.09,378.42 666.31,379.16 667.87,379.99 C669.01,380.59 669.28,399.04 669.51,492.11 C669.67,553.37 669.42,604.47 668.96,605.65 C668.21,607.61 667.20,607.84 656.82,608.39 ZM 580.09 585.08 C582.39,586.53 586.63,586.13 588.76,584.25 C590.52,582.69 590.66,581.75 590.00,575.50 C589.60,571.65 589.22,532.40 589.15,488.28 C589.03,412.13 589.12,408.01 590.82,407.10 C590.87,407.07 590.92,407.04 590.97,407.02 C591.65,406.65 592.22,406.34 592.69,406.45 C595.12,406.99 595.15,418.28 595.53,487.09 C595.97,566.64 596.35,580.00 598.18,580.00 C598.72,580.00 598.96,580.56 598.72,581.25 C597.98,583.30 599.92,586.00 602.13,586.00 C603.35,586.00 604.40,585.18 604.71,584.00 C605.00,582.90 605.86,582.00 606.62,582.00 C607.38,582.00 608.01,580.99 608.02,579.75 C608.03,578.51 608.47,573.45 609.00,568.50 C609.53,563.55 609.91,548.92 609.83,536.00 C609.75,523.08 609.68,510.25 609.66,507.50 C609.65,504.75 609.78,482.48 609.95,458.00 C610.26,412.52 609.76,404.89 606.42,403.61 C605.66,403.31 605.29,402.40 605.61,401.58 C606.66,398.83 601.62,398.59 597.10,401.17 L 593.00 403.50 L 589.05 401.25 C584.31,398.55 582.16,398.41 581.29,400.75 C580.94,401.71 580.19,402.81 579.63,403.18 C578.74,403.77 577.78,410.78 578.01,415.00 C578.06,415.83 578.23,454.23 578.39,500.34 C578.63,571.24 578.89,584.32 580.09,585.08 ZM 617.31 582.35 C618.83,584.67 619.71,585.06 622.81,584.81 C626.43,584.51 626.51,584.41 627.14,579.50 C627.50,576.75 627.87,535.67 627.98,488.20 C628.12,422.03 627.89,401.57 626.96,400.45 C625.01,398.10 620.77,398.78 617.67,401.94 L 614.85 404.82 L 615.51 427.16 C615.88,439.45 616.03,465.25 615.85,484.50 C615.10,564.29 615.33,579.33 617.31,582.35 ZM 636.31 583.75 C638.41,587.66 641.20,587.97 644.30,584.62 C646.46,582.29 646.50,581.76 646.42,554.43 C646.37,534.07 646.03,526.51 645.17,526.22 C643.72,525.74 643.49,495.35 644.94,494.83 C645.49,494.64 646.11,476.25 646.46,449.94 C646.97,410.42 646.85,405.01 645.44,402.18 C642.46,396.20 637.60,395.32 635.49,400.37 C634.31,403.19 634.12,418.01 634.32,492.12 C634.54,574.04 634.69,580.74 636.31,583.75 ZM 530.00 530.97 C524.16,532.24 519.28,532.26 518.50,531.00 C518.16,530.45 517.08,530.00 516.10,530.00 C515.11,530.00 513.48,529.08 512.46,527.95 C510.71,526.02 510.35,522.94 510.01,506.91 C509.98,505.59 505.27,504.34 501.87,504.75 C499.87,504.99 497.95,504.72 497.59,504.15 C496.95,503.10 507.58,489.00 509.01,489.00 C510.40,489.00 518.07,480.95 518.99,478.52 C520.15,475.49 524.20,472.76 526.34,473.58 C528.48,474.40 546.66,494.30 549.20,498.62 C550.30,500.48 551.59,502.00 552.07,502.00 C552.55,502.00 552.72,502.56 552.46,503.25 C552.17,504.01 550.22,504.47 547.49,504.42 C540.59,504.30 539.57,506.04 539.16,518.61 C538.84,528.31 538.67,529.04 536.66,529.50 C535.47,529.76 532.47,530.43 530.00,530.97 ZM 562.74 585.40 C563.93,586.59 566.55,585.89 569.00,583.72 L 571.50 581.50 L 571.19 563.50 C571.02,553.60 570.79,540.33 570.69,534.00 L 570.50 522.50 L 565.91 522.20 C560.64,521.86 558.62,523.46 558.87,527.78 C559.33,535.46 559.64,547.31 559.81,563.75 C559.98,579.77 560.20,582.00 561.61,582.00 C562.57,582.00 563.00,582.56 562.68,583.40 C562.38,584.17 562.41,585.07 562.74,585.40 ZM 562.75 455.53 C565.08,458.74 569.59,458.86 570.59,455.75 C571.29,453.60 571.31,444.78 570.68,418.75 C570.51,411.88 570.81,406.59 571.39,406.01 C572.69,404.71 567.32,399.00 564.79,399.00 C563.74,399.00 562.53,400.10 561.98,401.57 C561.44,402.98 561.00,415.13 561.00,428.63 C561.00,450.37 561.20,453.39 562.75,455.53 ZM 619.64 645.96 C618.30,647.30 616.30,647.29 615.46,645.93 C615.10,645.35 614.96,644.71 615.15,644.53 C616.85,642.88 626.70,636.86 628.40,636.44 C629.60,636.14 631.01,634.90 631.54,633.70 C632.07,632.49 634.08,630.72 636.00,629.76 C637.92,628.80 639.95,627.42 640.50,626.68 C645.09,620.56 647.20,618.71 648.07,620.07 C649.76,622.76 649.00,623.97 644.00,626.50 C641.26,627.89 639.12,629.51 639.25,630.11 C639.39,630.70 638.60,631.71 637.50,632.34 C636.40,632.98 635.14,634.06 634.70,634.75 C634.26,635.44 633.35,636.00 632.69,636.00 C632.02,636.00 631.03,636.96 630.49,638.13 C629.94,639.31 627.52,641.31 625.09,642.59 C622.66,643.87 620.21,645.39 619.64,645.96 ZM 516.42 673.81 C513.08,673.77 509.37,674.27 508.17,674.91 C506.94,675.57 506.00,675.66 506.00,675.11 C506.00,674.59 503.07,673.85 499.49,673.46 C492.84,672.75 490.93,671.67 492.86,669.74 C493.65,668.95 496.13,669.12 501.75,670.32 C506.04,671.25 511.56,672.03 514.02,672.07 C516.49,672.11 519.40,672.53 520.50,673.01 C521.90,673.61 520.67,673.85 516.42,673.81 ZM 688.88 568.00 C686.44,572.34 685.29,572.92 684.29,570.32 C683.60,568.51 690.02,555.79 691.59,555.87 C692.98,555.95 693.30,559.94 692.04,561.46 C691.20,562.47 691.24,562.94 692.21,563.32 C693.09,563.68 693.12,563.87 692.31,563.92 C691.66,563.96 690.12,565.80 688.88,568.00 ZM 700.56 532.80 C700.18,534.01 699.16,535.00 698.29,535.00 C696.99,535.00 696.82,534.10 697.30,529.75 C697.97,523.65 700.74,514.00 701.82,514.00 C702.66,514.00 701.63,529.45 700.56,532.80 ZM 419.96 344.52 C414.78,347.14 413.74,347.40 412.67,346.33 C411.32,344.99 412.12,344.21 418.09,341.03 C422.24,338.82 424.51,338.11 425.21,338.81 C426.72,340.32 425.41,341.76 419.96,344.52 ZM 364.09 583.03 C364.55,583.33 364.05,584.11 362.99,584.77 C361.29,585.83 360.75,585.53 358.53,582.26 C355.96,578.48 355.24,574.59 356.92,573.55 C358.00,572.88 361.62,577.21 362.59,580.33 C362.97,581.52 363.64,582.74 364.09,583.03 ZM 426.53 646.96 C425.42,648.75 423.44,648.12 418.56,644.39 C415.10,641.75 414.12,640.48 414.93,639.67 C415.74,638.86 417.26,639.23 420.59,641.03 C425.83,643.87 427.44,645.48 426.53,646.96 ZM 691.83 426.63 C691.65,427.57 690.98,428.51 690.34,428.72 C688.90,429.20 686.00,425.19 686.00,422.71 C686.00,421.70 685.51,419.95 684.91,418.83 C684.22,417.54 684.16,416.44 684.77,415.83 C685.98,414.62 692.29,424.26 691.83,426.63 ZM 628.97 346.25 C629.01,348.55 628.46,348.47 622.28,345.28 C615.40,341.74 614.39,339.49 620.08,340.40 C624.94,341.17 628.92,343.80 628.97,346.25 ZM 470.00 665.57 C470.00,667.03 456.69,664.09 454.83,662.23 C453.21,660.61 454.89,658.83 457.33,659.58 C460.39,660.51 470.00,665.06 470.00,665.57 ZM 359.00 414.63 C359.00,416.00 356.85,416.52 355.75,415.42 C355.44,415.10 356.10,412.63 357.22,409.92 C358.64,406.51 359.84,405.00 361.13,405.00 C363.57,405.00 363.51,407.53 361.00,410.73 C359.90,412.13 359.00,413.88 359.00,414.63 ZM 548.57 671.89 C547.71,673.27 538.34,673.37 537.50,672.00 C536.79,670.86 541.05,668.99 544.32,669.02 C547.23,669.04 549.42,670.51 548.57,671.89 ZM 456.70 325.46 C453.25,327.72 447.61,328.68 448.19,326.90 C448.71,325.30 454.64,322.12 457.25,322.05 C459.70,321.98 459.43,323.67 456.70,325.46 ZM 598.89 657.06 C594.77,659.26 591.00,659.97 591.00,658.54 C591.00,657.29 596.67,654.00 598.84,654.00 C600.96,654.00 600.99,655.94 598.89,657.06 ZM 593.00 325.61 C593.00,326.97 589.82,327.37 587.25,326.34 C585.28,325.54 585.79,323.00 587.92,323.00 C590.90,323.00 593.00,324.08 593.00,325.61 ZM 699.99 455.75 C700.00,458.34 698.50,458.76 697.61,456.42 C696.71,454.08 696.87,450.20 697.89,449.57 C698.86,448.97 699.96,452.22 699.99,455.75 ZM 648.00 362.47 C648.00,364.22 644.46,364.56 643.45,362.91 C642.50,361.38 644.55,359.61 646.43,360.34 C647.29,360.67 648.00,361.63 648.00,362.47 ZM 498.75 313.75 C499.02,314.57 498.11,315.00 496.08,315.00 C493.32,315.00 491.54,313.18 494.00,312.88 C497.38,312.45 498.38,312.64 498.75,313.75 ZM 544.00 313.91 C544.00,315.00 540.54,314.95 538.74,313.84 C537.91,313.33 538.07,312.91 539.28,312.45 C541.29,311.67 544.00,312.51 544.00,313.91 ZM 398.55 624.09 C398.92,624.69 398.84,625.53 398.36,625.96 C397.14,627.08 395.00,626.10 395.00,624.42 C395.00,622.75 397.58,622.51 398.55,624.09 ZM 396.55 362.91 C396.18,363.51 395.49,364.00 395.00,364.00 C393.46,364.00 392.73,361.87 393.89,360.71 C395.27,359.33 397.58,361.25 396.55,362.91 ZM 433.10 649.70 C433.82,650.42 433.84,650.98 433.16,651.40 C432.60,651.75 431.84,651.55 431.47,650.95 C430.52,649.41 431.82,648.42 433.10,649.70 Z" fill="rgb(4,177,205)"/>
<path d="M 580.09 585.08 C578.89,584.32 578.63,571.24 578.39,500.34 C578.23,454.23 578.06,415.83 578.01,415.00 C577.78,410.78 578.74,403.77 579.63,403.18 C580.19,402.81 580.94,401.71 581.29,400.75 C582.16,398.41 584.31,398.55 589.05,401.25 L 593.00 403.50 L 597.10 401.17 C601.62,398.59 606.66,398.83 605.61,401.58 C605.43,402.06 605.47,402.56 605.69,402.96 L 603.56 402.42 C602.21,402.09 600.64,402.11 600.06,402.46 C598.52,403.42 598.58,580.18 600.12,581.72 C601.33,582.93 604.04,582.32 605.23,580.57 C605.64,579.98 605.98,539.80 605.98,491.27 L 606.00 403.35 C606.12,403.46 606.26,403.55 606.42,403.61 C609.76,404.89 610.26,412.52 609.95,458.00 C609.78,482.48 609.65,504.75 609.66,507.50 C609.68,510.25 609.75,523.08 609.83,536.00 C609.91,548.92 609.53,563.55 609.00,568.50 C608.47,573.45 608.03,578.51 608.02,579.75 C608.01,580.99 607.38,582.00 606.62,582.00 C605.86,582.00 605.00,582.90 604.71,584.00 C604.40,585.18 603.35,586.00 602.13,586.00 C599.92,586.00 597.98,583.30 598.72,581.25 C598.96,580.56 598.72,580.00 598.18,580.00 C596.35,580.00 595.97,566.64 595.53,487.09 C595.15,418.28 595.12,406.99 592.69,406.45 C592.22,406.34 591.65,406.65 590.97,407.02 C590.92,407.04 590.87,407.07 590.82,407.10 C589.12,408.01 589.03,412.13 589.15,488.28 C589.22,532.40 589.60,571.65 590.00,575.50 C590.66,581.75 590.52,582.69 588.76,584.25 C586.63,586.13 582.39,586.53 580.09,585.08 ZM 656.82 608.39 C667.20,607.84 668.21,607.61 668.96,605.65 C669.42,604.47 669.67,553.37 669.51,492.11 C669.28,399.04 669.01,380.59 667.87,379.99 C666.31,379.16 649.09,378.42 597.50,376.99 C555.38,375.81 537.20,376.79 533.83,380.41 C532.61,381.72 532.12,383.23 532.50,384.49 C533.48,387.75 534.91,422.27 534.46,431.76 C533.79,445.63 532.91,453.00 531.92,453.00 C531.53,453.00 531.27,453.30 531.13,453.72 L 530.99 422.24 C530.90,401.48 530.87,382.36 530.91,379.75 L 531.00 375.00 L 673.00 375.00 L 673.04 472.25 C673.09,601.41 673.04,609.36 672.21,610.15 C671.82,610.52 640.90,611.12 603.50,611.48 L 535.50 612.15 L 533.24 609.47 C530.98,606.80 530.97,606.74 531.24,575.65 L 531.50 544.50 L 537.00 543.96 C544.27,543.25 548.68,540.77 550.79,536.20 C551.73,534.17 552.84,532.35 553.25,532.17 C553.66,531.98 554.00,530.03 554.00,527.82 C554.00,522.93 556.52,517.29 559.07,516.48 C560.11,516.15 562.31,514.23 563.98,512.21 C568.15,507.14 568.16,501.22 564.00,494.66 C561.52,490.76 561.00,488.88 561.00,483.92 C561.00,478.87 560.61,477.52 558.55,475.45 C555.85,472.76 551.24,472.21 548.05,474.20 C546.35,475.26 545.29,474.52 538.65,467.68 L 531.16 459.97 L 531.14 455.25 C531.27,455.68 531.51,456.03 531.87,456.17 C532.35,456.35 535.11,459.65 538.00,463.50 C540.89,467.35 543.84,470.84 544.56,471.26 C545.28,471.68 547.43,471.29 549.33,470.38 C553.90,468.20 557.25,469.15 560.62,473.57 C562.79,476.41 563.36,478.30 563.49,483.04 C563.60,486.83 564.23,489.60 565.24,490.73 C566.11,491.70 567.59,494.86 568.52,497.75 C570.04,502.41 570.08,503.64 568.87,508.72 C567.57,514.16 567.23,514.60 562.02,517.50 C557.00,520.29 556.48,520.92 555.76,525.02 C555.32,527.49 555.19,530.46 555.47,531.63 C556.33,535.25 547.41,545.00 543.24,545.00 C542.17,545.00 539.77,546.03 537.90,547.29 L 534.50 549.58 L 534.23 577.94 C534.00,602.84 534.16,606.52 535.58,608.08 C537.09,609.75 540.41,609.83 591.34,609.42 C621.13,609.18 650.59,608.71 656.82,608.39 ZM 540.56 532.58 C539.11,533.64 535.18,534.00 524.96,534.00 C524.48,534.00 524.02,534.00 523.56,534.00 C515.49,534.01 511.64,534.01 509.76,532.09 C507.95,530.24 507.97,526.60 507.79,519.46 L 507.50 508.50 L 502.00 507.50 C496.20,506.44 494.00,505.47 494.00,503.97 C494.00,501.20 523.69,469.78 525.91,470.20 C527.44,470.49 533.63,476.83 548.49,493.35 C556.49,502.23 557.38,503.57 556.62,505.56 C556.22,506.59 554.36,507.00 550.09,507.00 C546.71,507.00 543.81,507.49 543.42,508.13 C543.03,508.76 542.67,514.20 542.61,520.22 C542.51,529.82 542.26,531.33 540.56,532.58 ZM 617.31 582.35 C615.33,579.33 615.10,564.29 615.85,484.50 C616.03,465.25 615.88,439.45 615.51,427.16 L 614.85 404.82 L 617.67 401.94 C620.77,398.78 625.01,398.10 626.96,400.45 C627.89,401.57 628.12,422.03 627.98,488.20 C627.87,535.67 627.50,576.75 627.14,579.50 C626.51,584.41 626.43,584.51 622.81,584.81 C619.71,585.06 618.83,584.67 617.31,582.35 ZM 543.00 675.49 C526.15,678.10 501.06,676.94 481.16,672.65 C450.55,666.05 420.14,650.77 398.74,631.23 C387.69,621.14 386.79,619.00 393.58,619.00 C396.39,619.00 398.27,620.09 403.48,624.75 C423.01,642.21 444.68,654.42 468.87,661.59 C493.15,668.79 522.31,671.14 542.50,667.54 C547.45,666.66 554.20,665.56 557.50,665.10 C564.84,664.09 573.63,661.38 585.50,656.47 C590.45,654.42 595.93,652.22 597.68,651.58 C604.62,649.02 624.10,636.44 634.22,627.96 C643.19,620.44 645.48,619.00 648.40,619.00 C650.31,619.00 652.14,619.42 652.46,619.94 C653.81,622.12 637.40,636.67 622.31,646.67 C613.54,652.47 596.15,661.16 585.00,665.30 C571.02,670.49 563.42,672.34 543.00,675.49 ZM 398.36 364.46 C395.01,367.18 388.71,367.96 387.39,365.82 C386.41,364.24 399.69,352.07 412.50,342.81 C434.80,326.69 464.68,314.66 492.74,310.51 C507.92,308.27 535.50,308.50 550.29,311.00 C585.95,317.02 615.33,330.73 642.42,353.98 C653.68,363.64 655.11,366.24 649.48,366.80 C646.18,367.12 644.79,366.19 630.68,354.25 C625.97,350.26 621.81,347.00 621.43,347.00 C621.05,347.00 617.44,344.75 613.41,342.00 C609.37,339.25 605.72,337.00 605.29,337.00 C604.87,337.00 600.47,334.99 595.51,332.53 C581.51,325.58 574.99,323.35 563.00,321.42 C562.17,321.29 556.78,320.21 551.00,319.01 C542.37,317.23 537.03,316.84 521.00,316.82 C500.43,316.79 493.68,317.53 477.55,321.58 C450.51,328.37 428.09,339.35 410.11,354.61 C405.38,358.63 400.09,363.06 398.36,364.46 ZM 636.31 583.75 C634.69,580.74 634.54,574.04 634.32,492.12 C634.12,418.01 634.31,403.19 635.49,400.37 C637.60,395.32 642.46,396.20 645.44,402.18 C646.85,405.01 646.97,410.42 646.46,449.94 C646.11,476.25 645.49,494.64 644.94,494.83 C643.49,495.35 643.72,525.74 645.17,526.22 C646.03,526.51 646.37,534.07 646.42,554.43 C646.50,581.76 646.46,582.29 644.30,584.62 C641.20,587.97 638.41,587.66 636.31,583.75 ZM 530.00 530.97 C532.47,530.43 535.47,529.76 536.66,529.50 C538.67,529.04 538.84,528.31 539.16,518.61 C539.57,506.04 540.59,504.30 547.49,504.42 C550.22,504.47 552.17,504.01 552.46,503.25 C552.72,502.56 552.55,502.00 552.07,502.00 C551.59,502.00 550.30,500.48 549.20,498.62 C546.66,494.30 528.48,474.40 526.34,473.58 C524.20,472.76 520.15,475.49 518.99,478.52 C518.07,480.95 510.40,489.00 509.01,489.00 C507.58,489.00 496.95,503.10 497.59,504.15 C497.95,504.72 499.87,504.99 501.87,504.75 C505.27,504.34 509.98,505.59 510.01,506.91 C510.35,522.94 510.71,526.02 512.46,527.95 C513.48,529.08 515.11,530.00 516.10,530.00 C517.08,530.00 518.16,530.45 518.50,531.00 C519.28,532.26 524.16,532.24 530.00,530.97 ZM 365.00 586.39 C365.00,595.91 362.73,593.71 353.46,575.21 C343.54,555.43 336.47,529.26 335.16,507.50 C333.11,473.43 338.86,443.04 352.68,414.78 C359.33,401.18 362.48,396.00 364.07,396.00 C364.58,396.00 365.00,398.60 365.00,401.78 C365.00,406.25 364.32,408.87 361.98,413.38 C348.21,439.92 342.61,463.34 342.70,494.00 C342.75,508.50 343.23,514.16 345.51,527.00 C347.22,536.69 349.27,544.76 350.96,548.52 C352.45,551.84 353.99,555.83 354.38,557.40 C354.78,558.96 357.33,564.86 360.05,570.51 C364.18,579.06 365.00,581.70 365.00,586.39 ZM 689.53 571.61 C685.51,580.14 683.60,582.26 681.67,580.33 C679.81,578.48 681.16,569.45 684.40,562.08 C689.19,551.20 694.91,533.42 696.57,524.26 C698.74,512.34 699.46,489.21 698.09,475.92 C695.76,453.40 693.32,443.77 685.40,425.93 C681.70,417.59 680.81,414.50 680.95,410.52 C681.15,404.78 681.16,404.74 683.41,405.60 C687.25,407.08 698.45,433.91 701.50,448.94 C702.24,452.55 703.64,458.88 704.61,463.00 C706.01,468.94 706.40,475.08 706.44,492.50 C706.50,515.97 706.00,520.30 700.93,540.30 C697.59,553.44 695.95,557.96 689.53,571.61 ZM 619.55 581.08 C620.67,582.90 623.96,582.02 624.51,579.75 C624.81,578.51 624.93,538.12 624.77,490.00 L 624.50 402.50 L 621.75 402.18 C620.01,401.98 618.97,402.35 618.91,403.18 C618.50,409.35 619.11,580.37 619.55,581.08 ZM 582.20 581.80 C582.86,582.46 583.67,583.00 584.00,583.00 C586.89,583.00 587.00,579.55 587.00,491.91 C587.00,411.95 586.84,403.15 585.42,402.61 C585.20,402.52 584.99,402.43 584.80,402.35 C584.21,402.09 583.72,401.88 583.30,401.98 C580.99,402.54 580.99,412.66 581.00,478.56 C581.00,482.59 581.00,486.84 581.00,491.30 C581.00,559.42 581.28,580.88 582.20,581.80 ZM 638.43 580.88 C639.50,582.62 641.82,582.20 642.97,580.06 C643.67,578.74 643.93,549.85 643.76,490.82 C643.51,406.69 643.43,403.51 641.64,403.17 C640.62,402.97 639.34,403.26 638.80,403.80 C637.66,404.94 637.30,579.06 638.43,580.88 ZM 562.74 585.40 C562.41,585.07 562.38,584.17 562.68,583.40 C563.00,582.56 562.57,582.00 561.61,582.00 C560.20,582.00 559.98,579.77 559.81,563.75 C559.64,547.31 559.33,535.46 558.87,527.78 C558.62,523.46 560.64,521.86 565.91,522.20 L 570.50 522.50 L 570.69 534.00 C570.79,540.33 571.02,553.60 571.19,563.50 L 571.50 581.50 L 569.00 583.72 C566.55,585.89 563.93,586.59 562.74,585.40 ZM 562.67 582.33 C564.12,583.78 567.11,582.88 567.91,580.75 C568.38,579.51 568.84,566.24 568.93,551.25 L 569.09 524.00 L 562.00 524.00 L 562.00 552.83 C562.00,568.69 562.30,581.97 562.67,582.33 ZM 562.75 455.53 C562.60,455.33 562.47,455.12 562.34,454.88 C563.87,456.35 566.96,456.33 567.46,454.75 C567.68,454.06 568.04,441.89 568.27,427.70 L 568.68 401.90 L 565.09 402.20 L 561.79 402.48 C561.85,402.04 561.91,401.73 561.98,401.57 C562.53,400.10 563.74,399.00 564.79,399.00 C567.32,399.00 572.69,404.71 571.39,406.01 C570.81,406.59 570.51,411.88 570.68,418.75 C571.31,444.78 571.29,453.60 570.59,455.75 C569.59,458.86 565.08,458.74 562.75,455.53 ZM 619.64 645.96 C620.21,645.39 622.66,643.87 625.09,642.59 C627.52,641.31 629.94,639.31 630.49,638.13 C631.03,636.96 632.02,636.00 632.69,636.00 C633.35,636.00 634.26,635.44 634.70,634.75 C635.14,634.06 636.40,632.98 637.50,632.34 C638.60,631.71 639.39,630.70 639.25,630.11 C639.12,629.51 641.26,627.89 644.00,626.50 C649.00,623.97 649.76,622.76 648.07,620.07 C647.20,618.71 645.09,620.56 640.50,626.68 C639.95,627.42 637.92,628.80 636.00,629.76 C634.08,630.72 632.07,632.49 631.54,633.70 C631.01,634.90 629.60,636.14 628.40,636.44 C626.70,636.86 616.85,642.88 615.15,644.53 C614.96,644.71 615.10,645.35 615.46,645.93 C616.30,647.29 618.30,647.30 619.64,645.96 ZM 516.42 673.81 C520.67,673.85 521.90,673.61 520.50,673.01 C519.40,672.53 516.49,672.11 514.02,672.07 C511.56,672.03 506.04,671.25 501.75,670.32 C496.13,669.12 493.65,668.95 492.86,669.74 C490.93,671.67 492.84,672.75 499.49,673.46 C503.07,673.85 506.00,674.59 506.00,675.11 C506.00,675.66 506.94,675.57 508.17,674.91 C509.37,674.27 513.08,673.77 516.42,673.81 ZM 688.88 568.00 C690.12,565.80 691.66,563.96 692.31,563.92 C693.12,563.87 693.09,563.68 692.21,563.32 C691.24,562.94 691.20,562.47 692.04,561.46 C693.30,559.94 692.98,555.95 691.59,555.87 C690.02,555.79 683.60,568.51 684.29,570.32 C685.29,572.92 686.44,572.34 688.88,568.00 ZM 700.56 532.80 C701.63,529.45 702.66,514.00 701.82,514.00 C700.74,514.00 697.97,523.65 697.30,529.75 C696.82,534.10 696.99,535.00 698.29,535.00 C699.16,535.00 700.18,534.01 700.56,532.80 ZM 419.96 344.52 C425.41,341.76 426.72,340.32 425.21,338.81 C424.51,338.11 422.24,338.82 418.09,341.03 C412.12,344.21 411.32,344.99 412.67,346.33 C413.74,347.40 414.78,347.14 419.96,344.52 ZM 364.09 583.03 C363.64,582.74 362.97,581.52 362.59,580.33 C361.62,577.21 358.00,572.88 356.92,573.55 C355.24,574.59 355.96,578.48 358.53,582.26 C360.75,585.53 361.29,585.83 362.99,584.77 C364.05,584.11 364.55,583.33 364.09,583.03 ZM 426.53 646.96 C427.44,645.48 425.83,643.87 420.59,641.03 C417.26,639.23 415.74,638.86 414.93,639.67 C414.12,640.48 415.10,641.75 418.56,644.39 C423.44,648.12 425.42,648.75 426.53,646.96 ZM 691.83 426.63 C692.29,424.26 685.98,414.62 684.77,415.83 C684.16,416.44 684.22,417.54 684.91,418.83 C685.51,419.95 686.00,421.70 686.00,422.71 C686.00,425.19 688.90,429.20 690.34,428.72 C690.98,428.51 691.65,427.57 691.83,426.63 ZM 628.97 346.25 C628.92,343.80 624.94,341.17 620.08,340.40 C614.39,339.49 615.40,341.74 622.28,345.28 C628.46,348.47 629.01,348.55 628.97,346.25 ZM 470.00 665.57 C470.00,665.06 460.39,660.51 457.33,659.58 C454.89,658.83 453.21,660.61 454.83,662.23 C456.69,664.09 470.00,667.03 470.00,665.57 ZM 359.00 414.63 C359.00,413.88 359.90,412.13 361.00,410.73 C363.51,407.53 363.57,405.00 361.13,405.00 C359.84,405.00 358.64,406.51 357.22,409.92 C356.10,412.63 355.44,415.10 355.75,415.42 C356.85,416.52 359.00,416.00 359.00,414.63 ZM 548.57 671.89 C549.42,670.51 547.23,669.04 544.32,669.02 C541.05,668.99 536.79,670.86 537.50,672.00 C538.34,673.37 547.71,673.27 548.57,671.89 ZM 456.70 325.46 C459.43,323.67 459.70,321.98 457.25,322.05 C454.64,322.12 448.71,325.30 448.19,326.90 C447.61,328.68 453.25,327.72 456.70,325.46 ZM 598.89 657.06 C600.99,655.94 600.96,654.00 598.84,654.00 C596.67,654.00 591.00,657.29 591.00,658.54 C591.00,659.97 594.77,659.26 598.89,657.06 ZM 593.00 325.61 C593.00,324.08 590.90,323.00 587.92,323.00 C585.79,323.00 585.28,325.54 587.25,326.34 C589.82,327.37 593.00,326.97 593.00,325.61 ZM 699.99 455.75 C699.96,452.22 698.86,448.97 697.89,449.57 C696.87,450.20 696.71,454.08 697.61,456.42 C698.50,458.76 700.00,458.34 699.99,455.75 ZM 648.00 362.47 C648.00,361.63 647.29,360.67 646.43,360.34 C644.55,359.61 642.50,361.38 643.45,362.91 C644.46,364.56 648.00,364.22 648.00,362.47 ZM 498.75 313.75 C498.38,312.64 497.38,312.45 494.00,312.88 C491.54,313.18 493.32,315.00 496.08,315.00 C498.11,315.00 499.02,314.57 498.75,313.75 ZM 544.00 313.91 C544.00,312.51 541.29,311.67 539.28,312.45 C538.07,312.91 537.91,313.33 538.74,313.84 C540.54,314.95 544.00,315.00 544.00,313.91 ZM 398.55 624.09 C397.58,622.51 395.00,622.75 395.00,624.42 C395.00,626.10 397.14,627.08 398.36,625.96 C398.84,625.53 398.92,624.69 398.55,624.09 ZM 396.55 362.91 C397.58,361.25 395.27,359.33 393.89,360.71 C392.73,361.87 393.46,364.00 395.00,364.00 C395.49,364.00 396.18,363.51 396.55,362.91 ZM 561.46 406.71 L 561.23 427.88 C561.10,440.77 561.19,448.47 561.56,452.13 C561.08,448.90 561.00,442.67 561.00,428.63 C561.00,419.92 561.18,411.78 561.46,406.71 ZM 433.10 649.70 C431.82,648.42 430.52,649.41 431.47,650.95 C431.84,651.55 432.60,651.75 433.16,651.40 C433.84,650.98 433.82,650.42 433.10,649.70 Z" fill="rgb(13,170,195)"/>
<path d="M 545.00 661.48 C535.60,663.03 515.78,664.50 515.00,663.71 C514.72,663.44 509.87,662.89 504.20,662.50 C494.61,661.84 489.28,660.92 478.00,657.98 C464.42,654.44 462.00,653.59 462.00,652.34 C462.00,651.60 461.99,650.66 461.99,650.25 C461.98,649.84 462.84,649.45 463.90,649.39 C464.96,649.33 466.53,649.01 467.39,648.68 C468.25,648.35 471.10,648.75 473.73,649.56 C488.20,654.04 499.11,655.43 520.00,655.47 C533.26,655.49 542.97,655.02 547.50,654.15 C554.37,652.82 571.99,648.60 575.64,647.42 C577.00,646.97 577.14,647.07 576.17,647.77 C575.08,648.54 575.13,648.84 576.42,649.33 C577.29,649.66 578.00,650.80 578.00,651.85 C578.00,653.26 576.72,654.19 573.25,655.32 C567.52,657.19 556.52,659.59 545.00,661.48 ZM 487.55 515.78 C486.02,517.31 398.10,516.45 396.55,514.89 C396.22,514.56 396.65,513.71 397.50,513.00 C398.70,512.00 407.38,511.74 436.57,511.81 C438.69,511.82 440.70,511.83 442.61,511.83 C468.27,511.91 475.40,511.93 477.02,508.96 C477.64,507.81 477.45,506.23 477.18,504.03 C477.13,503.60 477.07,503.15 477.02,502.68 L 476.39 497.00 L 480.45 497.00 L 484.50 497.00 L 484.54 503.25 C484.56,507.62 485.13,510.34 486.42,512.28 C487.44,513.81 487.95,515.39 487.55,515.78 ZM 354.92 490.00 C354.49,490.00 354.00,490.93 353.82,492.06 C353.50,494.10 353.49,494.10 352.00,491.94 C351.17,490.74 349.94,489.17 349.25,488.45 C348.56,487.73 348.00,485.31 348.00,483.06 C348.00,476.61 350.81,459.59 353.52,449.63 C356.92,437.17 363.11,421.71 364.25,422.85 C366.10,424.70 364.37,439.53 360.69,453.28 C357.96,463.48 356.83,470.05 356.35,478.53 C355.99,484.84 355.35,490.00 354.92,490.00 ZM 364.96 557.25 C364.98,562.06 364.58,566.00 364.07,566.00 C363.15,566.00 360.84,560.48 356.52,547.98 C353.07,537.96 349.79,522.95 350.48,520.24 C350.81,518.90 350.62,517.24 350.04,516.55 C348.52,514.71 347.48,506.00 348.79,506.00 C350.95,506.00 353.00,502.76 353.12,499.18 C353.18,497.16 353.44,496.29 353.69,497.25 C353.94,498.21 354.50,499.00 354.92,499.00 C355.35,499.00 356.01,503.39 356.38,508.75 C357.11,519.20 360.76,537.96 363.34,544.50 C364.33,547.02 364.93,551.74 364.96,557.25 ZM 449.50 552.62 C433.00,552.62 416.35,552.86 412.50,553.16 C404.23,553.80 397.82,553.00 397.24,551.25 C396.92,550.26 406.49,550.00 442.86,550.00 C468.17,550.00 489.10,550.36 489.38,550.80 C489.65,551.24 489.50,552.19 489.05,552.91 C488.45,553.89 487.10,554.03 483.87,553.43 C481.47,552.99 466.00,552.63 449.50,552.62 ZM 607.54 348.50 C607.67,350.43 607.49,352.19 607.14,352.40 C606.79,352.62 602.22,350.62 597.00,347.96 C591.78,345.31 584.91,342.15 581.75,340.95 C578.59,339.74 576.00,338.45 576.00,338.08 C576.00,337.09 582.22,335.00 585.14,335.00 C587.14,335.00 605.31,342.99 606.90,344.57 C607.12,344.79 607.41,346.56 607.54,348.50 ZM 686.38 543.25 C684.73,548.55 683.36,550.03 681.67,548.33 C680.35,547.01 681.06,534.30 683.00,524.50 C685.32,512.80 685.72,510.76 686.71,510.41 C686.92,510.33 687.16,510.33 687.44,510.33 L 687.48 510.33 C688.93,510.33 689.66,514.77 689.14,520.43 C689.04,521.49 689.39,522.62 689.91,522.94 C691.00,523.62 689.12,534.42 686.38,543.25 ZM 419.25 420.82 C416.64,420.92 411.35,421.20 407.50,421.43 C399.20,421.92 395.61,421.14 395.21,418.75 C394.93,417.12 396.79,417.00 423.21,417.07 C438.77,417.11 452.17,417.45 453.00,417.82 C453.83,418.19 454.61,419.06 454.75,419.75 C455.07,421.34 428.86,421.53 425.93,419.96 C424.87,419.40 424.00,419.31 424.00,419.78 C424.00,420.24 421.86,420.71 419.25,420.82 ZM 459.96 649.32 C458.80,650.79 457.55,651.98 457.18,651.97 C456.80,651.95 452.56,650.08 447.75,647.82 C440.67,644.49 439.00,643.29 439.00,641.52 C439.00,639.37 436.13,638.35 434.97,640.10 C434.68,640.54 433.81,640.50 433.04,640.02 C431.87,639.30 431.85,638.88 432.94,637.58 C434.61,635.57 433.63,635.52 431.63,637.51 C430.29,638.86 430.14,638.81 430.27,637.08 C430.35,636.01 430.73,635.34 431.12,635.58 C431.51,635.82 433.03,635.56 434.50,635.00 C436.71,634.16 438.05,634.47 442.33,636.80 C445.17,638.34 450.20,640.66 453.50,641.96 C461.88,645.23 462.56,646.01 459.96,649.32 ZM 570.81 333.08 C569.54,333.75 568.28,334.59 568.00,334.95 C567.72,335.30 562.55,334.58 556.50,333.34 C550.45,332.09 544.54,331.06 543.36,331.04 C539.45,330.97 539.48,326.00 543.38,326.00 C544.60,326.00 546.09,325.51 546.69,324.91 C548.45,323.15 571.98,328.44 572.76,330.78 C572.96,331.38 572.08,332.41 570.81,333.08 ZM 610.16 637.76 C608.98,639.90 591.75,649.42 590.79,648.45 C590.54,648.21 587.71,647.78 584.51,647.51 C581.30,647.24 578.52,646.85 578.32,646.65 C578.12,646.46 581.43,644.84 585.66,643.06 C589.90,641.28 596.47,638.07 600.26,635.92 C605.52,632.94 607.58,632.24 608.95,632.97 C609.93,633.50 610.99,633.68 611.29,633.37 C612.23,632.43 611.48,635.37 610.16,637.76 ZM 454.25 343.04 C449.99,344.81 444.21,347.56 441.41,349.14 C436.60,351.85 436.24,351.91 434.85,350.26 C431.70,346.51 433.04,344.77 443.00,339.75 C449.75,336.33 453.22,335.11 455.00,335.51 C456.38,335.83 458.17,336.13 459.00,336.19 C460.45,336.30 461.95,337.80 461.98,339.16 C461.99,339.52 458.51,341.27 454.25,343.04 ZM 489.42 332.37 C485.06,333.22 480.60,334.15 479.50,334.42 C478.40,334.70 476.38,334.46 475.00,333.90 C473.62,333.33 471.49,333.06 470.25,333.30 C469.01,333.53 468.00,333.34 468.00,332.86 C468.00,332.39 467.23,332.00 466.30,332.00 C463.53,332.00 466.06,330.38 471.50,328.68 C481.18,325.64 493.10,323.55 493.85,324.75 C494.23,325.37 495.80,326.35 497.34,326.94 C499.74,327.85 499.94,328.20 498.74,329.41 C497.96,330.18 493.77,331.51 489.42,332.37 ZM 687.84 499.81 C687.76,499.09 687.38,500.75 687.00,503.50 L 686.31 508.50 L 686.16 501.75 C686.03,496.35 686.30,495.00 687.50,495.00 C688.41,495.00 689.00,494.07 689.00,492.62 C689.00,491.31 688.33,489.68 687.50,489.00 C686.52,488.19 686.01,485.98 686.02,482.63 C686.03,478.95 686.30,477.92 687.00,479.00 C687.53,479.83 687.98,480.13 687.98,479.68 C687.99,479.23 688.71,479.56 689.57,480.43 C690.44,481.29 691.79,482.00 692.57,482.00 C693.72,482.00 694.00,484.07 694.00,492.50 C694.00,501.26 693.75,503.00 692.47,503.00 C691.63,503.00 690.68,502.33 690.36,501.51 C690.05,500.68 689.39,500.26 688.90,500.56 C688.40,500.87 687.93,500.53 687.84,499.81 ZM 687.96 459.36 C686.87,466.98 685.49,470.55 684.63,468.00 C683.09,463.46 681.00,449.96 681.00,444.61 C681.00,439.03 681.21,438.41 683.12,438.27 C685.16,438.11 685.17,438.16 683.37,439.57 C682.34,440.37 681.95,440.97 682.50,440.90 C685.14,440.55 685.85,441.41 687.34,446.75 C688.63,451.37 688.75,453.85 687.96,459.36 ZM 472.72 528.35 C469.85,528.70 465.02,528.88 462.00,528.76 C458.98,528.63 444.12,528.41 429.00,528.26 C413.88,528.11 400.83,527.68 400.00,527.30 C397.72,526.26 411.06,525.26 414.50,526.22 C416.15,526.68 430.85,526.79 447.16,526.47 C464.73,526.13 477.05,526.27 477.38,526.81 C477.69,527.32 475.60,528.01 472.72,528.35 ZM 420.76 362.42 C415.93,366.35 414.50,367.00 410.63,367.00 C408.15,367.00 405.86,366.58 405.54,366.06 C405.22,365.54 408.13,362.55 412.02,359.42 C418.37,354.29 419.32,353.82 421.50,354.82 C423.03,355.51 424.15,355.57 424.52,354.96 C425.52,353.34 426.67,353.89 426.52,355.92 C426.45,356.97 423.85,359.90 420.76,362.42 ZM 628.80 625.39 C625.94,627.90 622.40,630.36 620.94,630.87 C618.33,631.78 615.99,631.13 615.66,629.39 C615.57,628.90 615.16,628.61 614.74,628.75 C612.87,629.38 616.61,625.20 620.56,622.25 C623.98,619.70 625.89,619.00 629.46,619.00 C631.96,619.00 634.00,619.42 634.00,619.92 C634.00,620.43 631.66,622.89 628.80,625.39 ZM 424.70 628.59 C422.13,633.19 421.60,633.10 413.64,626.79 C409.44,623.46 406.00,620.34 406.00,619.87 C406.00,619.39 408.15,619.00 410.78,619.00 C414.76,619.00 416.40,619.64 420.66,622.84 C425.06,626.14 425.62,626.93 424.70,628.59 ZM 634.60 365.83 C634.21,366.48 631.99,367.00 629.67,367.00 C626.22,367.00 624.57,366.26 620.48,362.89 C617.74,360.63 615.20,358.31 614.84,357.73 C613.96,356.32 614.80,354.34 616.29,354.29 C616.96,354.26 618.40,353.88 619.50,353.43 C621.34,352.69 621.38,352.77 620.00,354.50 C618.67,356.17 618.67,356.31 620.00,355.83 C620.83,355.52 622.40,355.67 623.50,356.16 C625.34,356.97 625.31,357.01 623.25,356.61 C622.01,356.38 621.00,356.54 621.00,356.98 C621.00,358.44 625.72,360.88 627.62,360.41 C629.97,359.83 635.61,364.21 634.60,365.83 ZM 448.80 376.34 C447.87,377.27 443.28,377.86 433.98,378.25 C419.20,378.86 416.83,378.60 417.66,376.44 C418.11,375.27 421.22,375.00 434.18,375.00 C447.54,375.00 449.92,375.22 448.80,376.34 ZM 390.98 378.32 C387.41,378.67 383.38,379.16 382.00,379.42 C380.62,379.68 378.29,379.52 376.81,379.05 C375.34,378.59 373.93,378.40 373.69,378.64 C373.45,378.88 373.01,378.16 372.72,377.04 C372.20,375.06 372.59,375.00 386.17,375.00 C397.87,375.00 399.92,375.22 398.80,376.34 C398.06,377.08 394.54,377.97 390.98,378.32 ZM 522.07 588.00 C521.55,588.00 520.95,589.24 520.72,590.75 C520.49,592.26 520.30,583.38 520.30,571.00 C520.30,558.62 520.49,549.74 520.72,551.25 C520.95,552.76 521.55,554.00 522.07,554.00 C522.61,554.00 523.00,561.14 523.00,571.00 C523.00,580.86 522.61,588.00 522.07,588.00 ZM 522.34 418.75 C522.59,419.16 522.16,420.08 521.40,420.79 C520.41,421.70 520.00,421.74 520.00,420.91 C520.00,420.07 515.85,419.83 504.75,420.04 C483.79,420.44 477.76,420.20 478.50,419.00 C479.22,417.83 521.63,417.59 522.34,418.75 ZM 530.13 324.39 C521.33,325.69 518.28,325.75 512.00,324.76 C502.89,323.32 506.58,322.16 520.50,322.09 C532.16,322.03 537.49,323.30 530.13,324.39 ZM 478.00 377.50 C478.00,379.74 477.04,380.70 475.92,379.59 C475.57,379.24 466.75,378.26 462.19,378.06 C461.47,378.03 461.14,377.59 461.45,377.09 C461.76,376.58 461.45,375.94 460.76,375.66 C460.07,375.39 463.66,375.12 468.75,375.08 C477.97,375.00 478.00,375.01 478.00,377.50 ZM 404.17 409.20 C403.53,410.72 396.96,410.07 396.34,408.43 C395.13,405.28 397.77,404.52 408.50,404.91 L 414.50 405.12 L 409.50 406.76 C406.75,407.67 404.35,408.76 404.17,409.20 ZM 404.01 433.00 C403.92,433.04 403.84,433.09 403.76,433.13 C402.80,433.64 402.31,433.91 401.85,433.87 C401.33,433.83 400.84,433.43 399.75,432.61 C396.21,429.92 397.72,428.90 404.75,429.20 C409.95,429.43 411.50,429.84 411.50,431.00 C411.50,431.83 410.72,432.44 409.76,432.36 C408.80,432.29 408.27,432.62 408.57,433.11 C408.87,433.60 408.67,434.00 408.12,434.00 C407.57,434.00 406.84,433.55 406.50,433.00 C406.08,432.33 405.26,432.33 404.01,433.00 ZM 414.00 579.04 C414.00,580.47 405.95,580.11 402.50,578.54 C399.81,577.30 401.05,577.17 414.50,577.28 C422.75,577.35 426.01,577.56 421.75,577.74 C417.49,577.93 414.00,578.52 414.00,579.04 ZM 499.25 474.48 C497.19,474.86 494.86,475.70 494.09,476.34 C492.89,477.32 492.86,477.16 493.87,475.25 C494.81,473.48 494.80,473.00 493.84,473.00 C492.96,473.00 492.91,472.69 493.66,471.94 C495.27,470.33 504.26,471.19 504.75,473.00 C505.11,474.33 505.03,474.33 504.09,473.00 C503.50,472.17 503.02,472.01 503.02,472.64 C503.01,473.26 501.31,474.09 499.25,474.48 ZM 504.00 542.07 C504.00,542.58 503.66,542.97 503.25,542.94 C501.75,542.81 498.00,541.05 498.00,540.47 C498.00,540.15 498.45,540.16 499.00,540.50 C500.81,541.62 500.04,539.48 498.00,537.73 C495.60,535.67 495.19,530.75 497.50,531.64 C498.88,532.17 499.12,532.74 499.40,536.25 C499.45,536.94 500.51,538.32 501.75,539.32 C502.99,540.33 504.00,541.56 504.00,542.07 ZM 426.50 445.00 C428.08,446.65 428.87,448.00 428.25,448.00 C427.63,448.00 426.83,447.53 426.48,446.96 C426.10,446.35 423.94,446.14 421.24,446.46 L 416.65 447.00 L 419.00 444.50 C422.02,441.29 423.01,441.35 426.50,445.00 ZM 462.11 443.08 C456.86,443.80 455.98,443.46 457.92,441.45 C458.42,440.93 458.98,439.50 459.17,438.28 C459.40,436.72 459.90,436.30 460.82,436.88 C462.16,437.72 463.24,442.93 462.11,443.08 ZM 496.62 518.88 C497.23,519.22 497.46,520.19 497.12,521.04 C496.58,522.37 496.26,522.33 494.68,520.72 C493.24,519.25 492.57,519.11 491.43,520.06 C490.26,521.03 490.00,520.85 490.00,519.10 C490.00,517.28 490.40,517.06 492.75,517.62 C494.26,517.98 496.00,518.55 496.62,518.88 ZM 445.28 432.86 C444.74,433.21 444.11,434.08 443.89,434.79 C443.56,435.81 443.22,435.82 442.24,434.84 C440.30,432.90 440.72,430.00 442.94,430.00 C445.17,430.00 446.73,431.91 445.28,432.86 ZM 409.00 445.29 C409.00,446.62 406.00,446.70 404.91,445.40 C404.23,444.58 403.04,444.15 402.26,444.46 C401.40,444.78 401.00,444.50 401.25,443.75 C401.48,443.06 402.75,442.50 404.08,442.50 C405.82,442.50 406.42,442.99 406.21,444.23 C406.01,445.44 406.39,445.79 407.46,445.38 C408.31,445.05 409.00,445.01 409.00,445.29 ZM 396.00 465.42 C396.00,467.10 395.45,468.00 394.43,468.00 C393.39,468.00 392.97,467.27 393.18,465.83 C393.65,462.63 396.00,462.28 396.00,465.42 ZM 522.14 429.30 C523.16,429.71 523.18,429.86 522.22,429.92 C520.84,430.01 519.60,427.69 520.16,426.07 C520.38,425.41 521.02,425.40 522.00,426.03 C523.25,426.84 523.27,427.15 522.14,427.88 C520.99,428.62 520.99,428.84 522.14,429.30 ZM 461.00 652.00 C461.00,652.55 460.55,653.00 460.00,653.00 C459.45,653.00 459.00,652.55 459.00,652.00 C459.00,651.45 459.45,651.00 460.00,651.00 C460.55,651.00 461.00,651.45 461.00,652.00 Z" fill="rgb(22,33,71)"/>
<path d="M 386.17 375.00 L 478.21 375.00 L 477.98 391.25 C477.85,400.19 477.81,409.85 477.88,412.73 L 478.00 417.96 L 491.40 418.12 C484.32,418.28 478.76,418.58 478.50,419.00 C477.76,420.20 483.79,420.44 504.75,420.04 C515.85,419.83 520.00,420.07 520.00,420.91 C520.00,421.74 520.41,421.70 521.40,420.79 C522.16,420.08 522.59,419.16 522.34,418.75 C522.28,418.65 521.92,418.56 521.32,418.49 L 522.50 418.50 L 522.60 426.46 C522.45,426.34 522.25,426.19 522.00,426.03 C521.02,425.40 520.38,425.41 520.16,426.07 C519.60,427.69 520.84,430.01 522.22,429.92 C522.40,429.91 522.54,429.90 522.65,429.88 L 522.77 439.06 L 523.04 459.62 L 518.93 462.31 C516.67,463.79 514.52,465.00 514.16,465.00 C513.80,465.00 512.23,467.02 510.67,469.48 C509.12,471.94 507.54,473.91 507.17,473.86 C506.39,473.75 505.63,473.68 504.91,473.66 C504.88,473.49 504.82,473.28 504.75,473.00 C504.26,471.19 495.27,470.33 493.66,471.94 C492.91,472.69 492.96,473.00 493.84,473.00 C494.80,473.00 494.81,473.48 493.87,475.25 C492.86,477.16 492.89,477.32 494.09,476.34 C494.86,475.70 497.19,474.86 499.25,474.48 C499.39,474.45 499.52,474.43 499.65,474.40 C495.99,475.78 494.00,479.02 494.00,483.90 C494.00,486.64 493.57,489.15 493.04,489.48 C492.50,489.81 470.43,490.05 443.97,490.02 L 395.87 489.96 L 396.19 493.23 L 396.50 496.50 L 434.50 496.65 C455.40,496.74 475.20,496.85 478.50,496.90 L 484.50 497.00 L 480.45 497.00 L 476.39 497.00 L 477.02 502.68 C477.07,503.15 477.13,503.60 477.18,504.03 C477.45,506.23 477.64,507.81 477.02,508.96 C475.40,511.93 468.27,511.91 442.61,511.83 C440.70,511.83 438.69,511.82 436.57,511.81 C407.38,511.74 398.70,512.00 397.50,513.00 C396.65,513.71 396.22,514.56 396.55,514.89 C397.04,515.38 405.92,515.79 417.96,516.09 C405.74,516.10 397.48,516.20 397.18,516.39 C396.72,516.68 396.54,518.29 396.78,519.97 L 397.23 523.02 L 443.36 522.76 L 489.50 522.50 L 489.82 519.75 C489.88,519.23 489.94,518.81 490.02,518.48 C490.01,518.66 490.00,518.87 490.00,519.10 C490.00,520.85 490.26,521.03 491.43,520.06 C492.57,519.11 493.24,519.25 494.68,520.72 C496.26,522.33 496.58,522.37 497.12,521.04 C497.40,520.34 497.29,519.56 496.91,519.12 C498.34,520.23 498.52,522.15 498.61,526.74 C498.87,539.11 502.73,543.19 514.95,544.00 L 522.50 544.50 L 522.60 556.79 C522.45,555.01 522.27,554.00 522.07,554.00 C521.55,554.00 520.95,552.76 520.72,551.25 C520.49,549.74 520.30,558.62 520.30,571.00 C520.30,583.38 520.49,592.26 520.72,590.75 C520.95,589.24 521.55,588.00 522.07,588.00 C522.38,588.00 522.64,585.67 522.80,581.83 C522.99,607.00 522.79,609.67 521.32,610.75 C520.00,611.72 503.38,612.00 446.31,612.00 L 373.00 612.00 L 372.92 541.75 C372.87,503.11 372.64,449.79 372.41,423.25 L 371.98 375.00 L 386.17 375.00 ZM 396.00 470.00 L 442.53 470.00 C484.69,470.00 489.12,469.85 489.69,468.36 C490.04,467.46 489.86,466.00 489.30,465.11 C488.39,463.67 483.33,463.47 442.14,463.22 L 396.00 462.95 L 396.00 470.00 ZM 426.50 445.00 C426.46,444.96 426.43,444.92 426.39,444.89 C426.59,445.09 426.80,445.29 427.00,445.50 C428.87,447.42 430.75,449.00 431.19,449.00 C431.63,449.00 433.74,447.42 435.87,445.50 C438.00,443.58 440.16,442.00 440.68,442.00 C441.19,442.00 443.13,443.58 445.00,445.50 C446.87,447.42 448.76,449.00 449.22,449.00 C449.67,449.00 452.06,447.14 454.52,444.87 C457.79,441.86 459.00,439.98 459.00,437.93 C459.00,433.81 457.73,433.67 453.96,437.39 C450.12,441.19 448.43,441.10 444.41,436.91 C442.88,435.31 441.10,434.00 440.47,434.00 C439.83,434.00 437.63,435.63 435.57,437.63 L 431.84 441.25 L 428.13 437.63 C426.09,435.63 423.59,434.00 422.58,434.00 C421.56,434.00 419.31,435.51 417.58,437.35 C414.03,441.11 411.71,440.97 408.39,436.79 C405.02,432.54 404.08,432.52 399.91,436.59 C397.24,439.19 396.00,441.28 396.00,443.14 C396.00,446.94 397.30,447.37 400.03,444.47 C403.05,441.25 404.86,441.35 408.61,445.10 C408.33,445.11 407.92,445.20 407.46,445.38 C406.39,445.79 406.01,445.44 406.21,444.23 C406.42,442.99 405.82,442.50 404.08,442.50 C402.75,442.50 401.48,443.06 401.25,443.75 C401.00,444.50 401.40,444.78 402.26,444.46 C403.04,444.15 404.23,444.58 404.91,445.40 C405.94,446.64 408.70,446.63 408.98,445.48 L 409.00 445.50 C410.87,447.42 412.75,449.00 413.19,449.00 C413.63,449.00 415.74,447.42 417.87,445.50 C418.23,445.17 418.59,444.86 418.95,444.56 L 416.65 447.00 L 421.24 446.46 C423.94,446.14 426.10,446.35 426.48,446.96 C426.83,447.53 427.63,448.00 428.25,448.00 C428.87,448.00 428.08,446.65 426.50,445.00 ZM 396.00 544.00 L 396.00 550.02 L 489.50 549.50 L 489.82 546.75 L 490.13 544.00 ZM 607.54 348.50 C607.43,346.88 607.21,345.38 607.02,344.80 C611.79,347.42 616.33,350.19 620.53,353.05 C620.29,353.12 619.95,353.25 619.50,353.43 C618.40,353.88 616.96,354.26 616.29,354.29 C614.80,354.34 613.96,356.32 614.84,357.73 C615.20,358.31 617.74,360.63 620.48,362.89 C620.53,362.93 620.58,362.97 620.63,363.01 C619.85,362.41 618.98,361.72 618.00,360.94 C609.80,354.34 585.94,341.98 573.00,337.63 C556.59,332.10 528.90,328.33 512.78,329.43 C504.76,329.97 497.08,330.93 489.66,332.32 C493.93,331.46 497.98,330.16 498.74,329.41 C499.94,328.20 499.74,327.85 497.34,326.94 C495.80,326.35 494.23,325.37 493.85,324.75 C493.58,324.33 491.93,324.31 489.48,324.60 C493.06,323.95 496.69,323.39 500.35,322.94 C504.76,322.40 510.60,322.14 516.92,322.13 C506.01,322.37 503.73,323.45 512.00,324.76 C518.28,325.75 521.33,325.69 530.13,324.39 C534.90,323.69 534.34,322.90 530.18,322.45 C539.08,322.89 547.65,323.74 553.50,324.93 C554.41,325.11 555.33,325.31 556.24,325.51 C551.49,324.62 547.39,324.21 546.69,324.91 C546.09,325.51 544.60,326.00 543.38,326.00 C539.48,326.00 539.45,330.97 543.36,331.04 C544.54,331.06 550.45,332.09 556.50,333.34 C562.55,334.58 567.72,335.30 568.00,334.95 C568.28,334.59 569.54,333.75 570.81,333.08 C572.08,332.41 572.96,331.38 572.76,330.78 C572.62,330.36 571.75,329.84 570.40,329.29 C577.76,331.58 585.12,334.36 592.22,337.50 C588.77,336.07 585.87,335.00 585.14,335.00 C582.22,335.00 576.00,337.09 576.00,338.08 C576.00,338.45 578.59,339.74 581.75,340.95 C584.91,342.15 591.78,345.31 597.00,347.96 C602.22,350.62 606.79,352.62 607.14,352.40 C607.49,352.19 607.67,350.43 607.54,348.50 ZM 396.39 575.57 C396.87,576.81 401.79,576.99 429.72,576.76 L 462.50 576.50 L 462.50 570.50 L 429.51 570.50 C398.49,570.50 396.51,570.61 396.18,572.31 C395.99,573.30 396.08,574.77 396.39,575.57 ZM 396.18 415.72 C397.00,416.71 403.72,417.00 425.50,417.00 C455.44,417.00 456.69,416.81 455.82,412.30 C455.49,410.62 453.56,410.50 425.58,410.50 C396.63,410.50 395.68,410.56 395.40,412.47 C395.24,413.55 395.59,415.01 396.18,415.72 ZM 687.84 499.81 C687.93,500.53 688.40,500.87 688.90,500.56 C689.39,500.26 690.05,500.68 690.36,501.51 C690.68,502.33 691.63,503.00 692.47,503.00 C692.93,503.00 693.25,502.78 693.48,502.09 C693.13,509.55 692.55,516.57 692.11,518.50 C691.61,520.70 690.47,526.10 689.58,530.50 C689.36,531.57 689.09,532.78 688.79,534.05 C690.05,528.25 690.63,523.39 689.91,522.94 C689.39,522.62 689.04,521.49 689.14,520.43 C689.66,514.77 688.93,510.33 687.48,510.33 L 687.44 510.33 C687.16,510.33 686.92,510.33 686.71,510.41 C686.00,510.66 685.60,511.78 684.56,516.72 C685.32,511.13 685.46,505.17 685.42,492.50 C685.38,478.95 685.15,472.77 684.21,466.62 C684.35,467.14 684.49,467.60 684.63,468.00 C685.49,470.55 686.87,466.98 687.96,459.36 C688.60,454.89 688.64,452.41 687.94,449.17 C691.28,461.72 693.05,472.14 693.59,483.36 C693.37,482.35 693.05,482.00 692.57,482.00 C691.79,482.00 690.44,481.29 689.57,480.43 C688.71,479.56 687.99,479.23 687.98,479.68 C687.98,480.13 687.53,479.83 687.00,479.00 C686.30,477.92 686.03,478.95 686.02,482.63 C686.01,485.98 686.52,488.19 687.50,489.00 C688.33,489.68 689.00,491.31 689.00,492.62 C689.00,494.07 688.41,495.00 687.50,495.00 C686.30,495.00 686.03,496.35 686.16,501.75 L 686.31 508.50 L 687.00 503.50 C687.38,500.75 687.76,499.09 687.84,499.81 ZM 449.50 552.62 C466.00,552.63 481.47,552.99 483.87,553.43 C487.10,554.03 488.45,553.89 489.05,552.91 C489.50,552.19 489.65,551.24 489.38,550.80 C489.10,550.36 468.17,550.00 442.86,550.00 C406.49,550.00 396.92,550.26 397.24,551.25 C397.82,553.00 404.23,553.80 412.50,553.16 C416.35,552.86 433.00,552.62 449.50,552.62 ZM 419.25 420.82 C421.86,420.71 424.00,420.24 424.00,419.78 C424.00,419.31 424.87,419.40 425.93,419.96 C428.86,421.53 455.07,421.34 454.75,419.75 C454.61,419.06 453.83,418.19 453.00,417.82 C452.17,417.45 438.77,417.11 423.21,417.07 C396.79,417.00 394.93,417.12 395.21,418.75 C395.61,421.14 399.20,421.92 407.50,421.43 C411.35,421.20 416.64,420.92 419.25,420.82 ZM 472.72 528.35 C475.60,528.01 477.69,527.32 477.38,526.81 C477.05,526.27 464.73,526.13 447.16,526.47 C430.85,526.79 416.15,526.68 414.50,526.22 C411.06,525.26 397.72,526.26 400.00,527.30 C400.83,527.68 413.88,528.11 429.00,528.26 C444.12,528.41 458.98,528.63 462.00,528.76 C465.02,528.88 469.85,528.70 472.72,528.35 ZM 610.16 637.76 C611.48,635.37 612.23,632.43 611.29,633.37 C610.99,633.68 609.93,633.50 608.95,632.97 C607.58,632.24 605.52,632.94 600.26,635.92 C599.32,636.46 598.20,637.06 596.99,637.69 C603.65,634.16 610.03,630.09 616.42,625.36 C617.40,624.64 618.28,624.00 619.08,623.42 C615.75,626.19 613.11,629.30 614.74,628.75 C615.16,628.61 615.57,628.90 615.66,629.39 C615.99,631.13 618.33,631.78 620.94,630.87 C622.11,630.46 624.60,628.81 627.02,626.88 C622.85,630.33 617.46,634.33 612.73,637.33 C600.52,645.09 588.56,650.67 574.45,654.91 C577.02,653.95 578.00,653.08 578.00,651.85 C578.00,650.80 577.29,649.66 576.42,649.33 C575.13,648.84 575.08,648.54 576.17,647.77 C577.14,647.07 577.00,646.97 575.64,647.42 C573.83,648.01 568.55,649.35 562.86,650.71 C570.88,648.61 578.21,646.17 585.14,643.28 C581.16,644.97 578.13,646.46 578.32,646.65 C578.52,646.85 581.30,647.24 584.51,647.51 C587.71,647.78 590.54,648.21 590.79,648.45 C591.75,649.42 608.98,639.90 610.16,637.76 ZM 354.92 490.00 C355.35,490.00 355.99,484.84 356.35,478.53 C356.42,477.22 356.51,475.96 356.62,474.72 L 356.66 493.00 C356.68,503.55 356.72,509.92 356.98,514.66 C356.71,512.52 356.50,510.51 356.38,508.75 C356.01,503.39 355.35,499.00 354.92,499.00 C354.50,499.00 353.94,498.21 353.69,497.25 C353.44,496.29 353.18,497.16 353.12,499.18 C353.00,502.76 350.95,506.00 348.79,506.00 C348.69,506.00 348.59,506.06 348.52,506.17 C348.44,504.16 348.37,501.96 348.30,499.50 C348.16,494.42 348.13,489.85 348.22,485.61 C348.45,486.91 348.83,488.01 349.25,488.45 C349.94,489.17 351.17,490.74 352.00,491.94 C353.49,494.10 353.50,494.10 353.82,492.06 C354.00,490.93 354.49,490.00 354.92,490.00 ZM 454.25 343.04 C454.33,343.01 454.40,342.98 454.48,342.94 C448.50,345.51 442.63,348.43 436.83,351.75 C431.48,354.79 424.41,359.47 421.11,362.14 C420.58,362.58 420.08,362.98 419.62,363.34 C419.98,363.05 420.36,362.75 420.76,362.42 C423.85,359.90 426.45,356.97 426.52,355.92 C426.67,353.89 425.52,353.34 424.52,354.96 C424.15,355.57 423.03,355.51 421.50,354.82 C420.13,354.19 419.24,354.14 417.18,355.48 C424.21,350.29 431.63,345.67 439.40,341.63 C432.76,345.29 432.13,347.02 434.85,350.26 C436.24,351.91 436.60,351.85 441.41,349.14 C444.21,347.56 449.99,344.81 454.25,343.04 ZM 468.46 329.73 C465.23,331.00 464.12,332.00 466.30,332.00 C467.23,332.00 468.00,332.39 468.00,332.86 C468.00,333.34 469.01,333.53 470.25,333.30 C471.49,333.06 473.62,333.33 475.00,333.90 C476.38,334.46 478.40,334.70 479.50,334.42 C480.26,334.23 482.61,333.74 485.42,333.17 C475.00,335.38 465.09,338.48 455.48,342.52 C459.16,340.94 461.99,339.48 461.98,339.16 C461.95,337.80 460.45,336.30 459.00,336.19 C458.17,336.13 456.38,335.83 455.00,335.51 C454.11,335.31 452.79,335.52 450.85,336.21 C456.56,333.75 462.44,331.59 468.46,329.73 ZM 448.80 376.34 C449.92,375.22 447.54,375.00 434.18,375.00 C421.22,375.00 418.11,375.27 417.66,376.44 C416.83,378.60 419.20,378.86 433.98,378.25 C443.28,377.86 447.87,377.27 448.80,376.34 ZM 386.17 375.00 C372.59,375.00 372.20,375.06 372.72,377.04 C373.01,378.16 373.45,378.88 373.69,378.64 C373.93,378.40 375.34,378.59 376.81,379.05 C378.29,379.52 380.62,379.68 382.00,379.42 C383.38,379.16 387.41,378.67 390.98,378.32 C394.54,377.97 398.06,377.08 398.80,376.34 C399.92,375.22 397.87,375.00 386.17,375.00 ZM 424.70 628.59 C425.44,627.26 425.22,626.49 422.82,624.51 C429.78,629.45 440.74,636.01 447.98,639.58 C445.87,638.61 443.81,637.60 442.33,636.80 C438.05,634.47 436.71,634.16 434.50,635.00 C433.03,635.56 431.51,635.82 431.12,635.58 C430.73,635.34 430.35,636.01 430.27,637.08 C430.21,637.85 430.21,638.28 430.34,638.41 C428.43,637.28 426.63,636.15 425.00,635.05 C423.02,633.72 420.90,632.21 418.82,630.68 C422.06,632.77 422.86,631.89 424.70,628.59 ZM 478.00 377.50 C478.00,375.01 477.97,375.00 468.75,375.08 C463.66,375.12 460.07,375.39 460.76,375.66 C461.45,375.94 461.76,376.58 461.45,377.09 C461.14,377.59 461.47,378.03 462.19,378.06 C466.75,378.26 475.57,379.24 475.92,379.59 C477.04,380.70 478.00,379.74 478.00,377.50 ZM 404.17 409.20 C404.35,408.76 406.75,407.67 409.50,406.76 L 414.50 405.12 L 408.50 404.91 C397.77,404.52 395.13,405.28 396.34,408.43 C396.96,410.07 403.53,410.72 404.17,409.20 ZM 404.01 433.00 C405.26,432.33 406.08,432.33 406.50,433.00 C406.84,433.55 407.57,434.00 408.12,434.00 C408.67,434.00 408.87,433.60 408.57,433.11 C408.27,432.62 408.80,432.29 409.76,432.36 C410.72,432.44 411.50,431.83 411.50,431.00 C411.50,429.84 409.95,429.43 404.75,429.20 C397.72,428.90 396.21,429.92 399.75,432.61 C400.84,433.43 401.33,433.83 401.85,433.87 C402.31,433.91 402.80,433.64 403.76,433.13 C403.84,433.09 403.92,433.04 404.01,433.00 ZM 459.96 649.32 C461.89,646.87 462.01,645.80 458.52,644.08 C458.89,644.24 459.22,644.38 459.50,644.51 C465.64,647.25 478.82,651.17 489.00,653.28 C493.35,654.18 499.63,654.82 506.61,655.19 C493.72,654.60 484.76,652.97 473.73,649.56 C471.10,648.75 468.25,648.35 467.39,648.68 C466.53,649.01 464.96,649.33 463.90,649.39 C462.84,649.45 461.98,649.84 461.99,650.25 C461.99,650.66 462.00,651.60 462.00,652.34 C462.00,652.85 462.41,653.30 463.83,653.89 L 463.50 653.79 C462.57,653.50 461.59,653.18 460.57,652.82 C460.83,652.64 461.00,652.34 461.00,652.00 C461.00,651.45 460.55,651.00 460.00,651.00 C459.45,651.00 459.00,651.45 459.00,652.00 C459.00,652.09 459.01,652.19 459.04,652.27 C458.58,652.10 458.11,651.93 457.64,651.75 C458.20,651.34 459.11,650.41 459.96,649.32 ZM 414.00 579.04 C414.00,578.52 417.49,577.93 421.75,577.74 C426.01,577.56 422.75,577.35 414.50,577.28 C401.05,577.17 399.81,577.30 402.50,578.54 C405.95,580.11 414.00,580.47 414.00,579.04 ZM 504.00 542.07 C504.00,541.56 502.99,540.33 501.75,539.32 C500.51,538.32 499.45,536.94 499.40,536.25 C499.12,532.74 498.88,532.17 497.50,531.64 C495.19,530.75 495.60,535.67 498.00,537.73 C500.04,539.48 500.81,541.62 499.00,540.50 C498.45,540.16 498.00,540.15 498.00,540.47 C498.00,541.05 501.75,542.81 503.25,542.94 C503.66,542.97 504.00,542.58 504.00,542.07 ZM 632.68 362.55 C631.06,361.21 628.87,360.10 627.62,360.41 C625.72,360.88 621.00,358.44 621.00,356.98 C621.00,356.54 622.01,356.38 623.25,356.61 C625.31,357.01 625.34,356.97 623.50,356.16 C622.40,355.67 620.83,355.52 620.00,355.83 C618.67,356.31 618.67,356.17 620.00,354.50 C620.46,353.93 620.76,353.54 620.89,353.30 C624.70,355.91 628.23,358.61 631.39,361.36 C631.88,361.78 632.31,362.18 632.68,362.55 ZM 462.11 443.08 C463.24,442.93 462.16,437.72 460.82,436.88 C459.90,436.30 459.40,436.72 459.17,438.28 C458.98,439.50 458.42,440.93 457.92,441.45 C455.98,443.46 456.86,443.80 462.11,443.08 ZM 681.03 442.04 C680.89,437.36 681.17,434.00 681.96,434.00 C683.32,434.00 684.38,436.23 686.74,444.72 C685.61,441.19 684.76,440.60 682.50,440.90 C681.95,440.97 682.34,440.37 683.37,439.57 C685.17,438.16 685.16,438.11 683.12,438.27 C681.55,438.38 681.13,438.82 681.03,442.04 ZM 445.28 432.86 C446.73,431.91 445.17,430.00 442.94,430.00 C440.72,430.00 440.30,432.90 442.24,434.84 C443.22,435.82 443.56,435.81 443.89,434.79 C444.11,434.08 444.74,433.21 445.28,432.86 ZM 440.90 644.21 C438.38,642.93 435.90,641.60 433.54,640.27 C434.16,640.50 434.75,640.44 434.97,640.10 C436.13,638.35 439.00,639.37 439.00,641.52 C439.00,642.44 439.46,643.21 440.90,644.21 ZM 685.66 545.44 C684.40,549.25 682.84,552.55 682.19,552.77 C681.14,553.12 680.78,548.94 680.99,543.19 C680.98,545.93 681.19,547.86 681.67,548.33 C683.20,549.87 684.46,548.81 685.91,544.66 C685.83,544.93 685.74,545.19 685.66,545.44 ZM 396.00 465.42 C396.00,462.28 393.65,462.63 393.18,465.83 C392.97,467.27 393.39,468.00 394.43,468.00 C395.45,468.00 396.00,467.10 396.00,465.42 ZM 348.94 513.81 C349.24,515.03 349.63,516.05 350.04,516.55 C350.62,517.24 350.81,518.90 350.48,520.24 C350.07,521.87 351.08,527.93 352.71,534.68 C352.25,532.93 351.81,531.19 351.42,529.50 C350.10,523.93 349.39,519.80 348.94,513.81 ZM 432.65 639.77 C431.89,639.33 431.14,638.89 430.40,638.45 C430.59,638.50 430.96,638.18 431.63,637.51 C433.63,635.52 434.61,635.57 432.94,637.58 C431.99,638.72 431.88,639.18 432.65,639.77 ZM 501.21 473.95 C502.28,473.54 503.01,473.05 503.02,472.64 C503.02,472.01 503.50,472.17 504.09,473.00 C504.28,473.27 504.44,473.49 504.56,473.65 C503.35,473.63 502.23,473.73 501.21,473.95 ZM 349.16 471.38 C350.00,464.20 351.40,457.42 353.51,449.67 C353.61,449.31 353.71,448.96 353.81,448.60 C353.71,448.94 353.62,449.29 353.52,449.63 C351.90,455.60 350.23,464.12 349.16,471.38 ZM 522.14 429.30 C520.99,428.84 520.99,428.62 522.14,427.88 C522.33,427.75 522.49,427.64 522.62,427.53 L 522.64 429.52 C522.52,429.46 522.35,429.38 522.14,429.30 ZM 363.55 565.61 C362.24,564.01 359.77,557.77 357.23,550.02 C360.47,559.29 362.47,564.24 363.55,565.61 ZM 418.92 621.58 C415.91,619.49 414.22,619.01 410.92,619.00 C414.64,619.00 416.54,619.58 418.67,621.37 C418.76,621.44 418.84,621.51 418.92,621.58 ZM 537.25 655.13 C541.50,654.87 545.31,654.48 548.34,653.98 C548.05,654.04 547.77,654.09 547.50,654.15 C545.27,654.58 541.79,654.91 537.25,655.13 ZM 475.73 657.39 C476.45,657.58 477.21,657.77 478.00,657.98 C482.14,659.06 485.47,659.86 488.51,660.49 C484.70,659.73 480.60,658.73 475.73,657.39 ZM 364.28 435.65 C365.20,428.97 365.28,423.88 364.25,422.85 C365.32,423.92 365.24,428.97 364.28,435.65 ZM 423.74 442.57 C423.17,442.24 422.67,442.12 422.16,442.19 C422.39,442.07 422.57,442.00 422.68,442.00 C422.86,442.00 423.24,442.21 423.74,442.57 ZM 630.62 366.97 C631.96,366.89 633.18,366.64 633.92,366.32 C633.32,366.71 632.22,366.92 630.62,366.97 ZM 633.99 619.88 C633.87,619.39 631.91,619.01 629.51,619.00 C631.98,619.00 634.00,619.36 634.00,619.80 C634.00,619.83 634.00,619.85 633.99,619.88 ZM 629.84 624.47 C631.67,622.80 633.16,621.25 633.74,620.44 C633.19,621.31 631.77,622.74 629.84,624.47 ZM 361.37 538.04 C362.16,540.94 362.88,543.35 363.34,544.50 C362.72,542.94 362.05,540.70 361.37,538.04 ZM 496.25 518.71 C495.50,518.39 494.18,517.97 492.96,517.67 C494.39,518.01 495.46,518.31 496.25,518.71 ZM 409.49 623.36 C407.82,621.94 406.62,620.81 406.18,620.20 C406.63,620.78 407.84,621.93 409.49,623.36 ZM 408.95 362.04 C406.72,364.08 405.31,365.69 405.54,366.06 C405.30,365.68 406.72,364.06 408.95,362.04 ZM 364.08 566.00 C364.51,565.97 364.86,563.11 364.94,559.30 C364.86,563.13 364.52,566.00 364.09,566.00 ZM 406.00 619.85 C406.00,619.84 406.00,619.83 406.00,619.83 C406.00,619.55 406.81,619.31 408.04,619.16 C406.84,619.31 406.04,619.56 406.00,619.85 Z" fill="rgb(27,40,82)"/>
<path d="M 550.72 536.35 C551.41,534.28 552.14,530.18 552.48,526.38 L 553.19 518.26 L 557.04 517.11 C559.31,516.43 561.97,514.58 563.81,512.41 C562.17,514.35 560.07,516.16 559.07,516.48 C556.52,517.29 554.00,522.93 554.00,527.82 C554.00,530.03 553.66,531.98 553.25,532.17 C552.84,532.35 551.73,534.17 550.79,536.20 C550.77,536.25 550.74,536.30 550.72,536.35 ZM 672.21 610.15 C671.82,610.53 639.88,611.16 601.24,611.56 L 530.97 612.28 L 531.12 593.44 C531.11,606.93 531.53,607.46 533.24,609.47 L 535.50 612.15 L 603.50 611.48 C640.90,611.12 671.82,610.52 672.21,610.15 C672.32,610.05 672.41,609.83 672.49,609.27 C672.41,609.84 672.32,610.05 672.21,610.15 ZM 687.05 576.54 C685.08,580.43 683.30,583.67 682.65,584.50 C681.22,586.30 681.07,585.98 681.04,579.01 C681.17,579.60 681.38,580.05 681.67,580.33 C683.15,581.82 684.62,580.91 687.05,576.54 ZM 687.84 411.64 C686.02,408.26 684.45,406.00 683.41,405.60 C681.16,404.74 681.15,404.78 680.95,410.52 C680.86,412.96 681.16,415.05 682.26,418.22 C680.67,414.01 680.67,412.19 681.00,407.59 C681.58,399.59 681.88,399.73 687.29,410.54 C687.47,410.90 687.65,411.27 687.84,411.64 ZM 681.16 573.07 C681.43,569.37 682.24,567.00 684.40,562.08 C682.82,565.69 681.68,569.70 681.16,573.07 ZM 694.32 426.05 C697.67,434.35 700.13,442.16 701.50,448.94 C700.20,442.50 697.39,433.90 694.32,426.05 ZM 545.16 541.89 C542.99,542.96 540.29,543.64 537.00,543.96 C540.18,543.65 542.94,542.94 545.16,541.89 Z" fill="rgb(45,173,195)"/>
<path d="M 507.41 668.63 C509.86,668.68 512.07,668.52 513.64,668.08 C518.57,666.72 522.87,666.72 528.24,668.09 C531.58,668.95 534.56,668.83 542.00,667.55 C547.22,666.65 553.29,665.65 555.48,665.33 C557.67,665.01 559.96,664.07 560.57,663.24 C561.32,662.21 562.74,661.88 565.01,662.21 C567.14,662.53 569.36,662.32 572.96,661.22 C567.02,663.23 561.99,664.48 557.50,665.10 C554.20,665.56 547.45,666.66 542.50,667.54 C532.46,669.33 520.19,669.65 507.41,668.63 ZM 686.07 427.45 C691.87,440.71 694.58,449.55 696.57,463.34 C695.66,457.43 694.76,454.00 694.07,454.00 C693.63,454.00 692.50,451.41 691.56,448.25 C690.61,445.09 689.37,441.27 688.81,439.77 C688.24,438.27 688.04,436.34 688.37,435.48 C688.63,434.80 687.65,431.47 686.07,427.45 ZM 464.17 660.12 C468.09,661.32 472.33,662.15 475.21,662.11 C478.35,662.06 480.19,662.52 480.74,663.49 C481.41,664.69 482.21,664.75 485.27,663.81 C488.59,662.79 489.17,662.89 490.80,664.77 C491.87,666.00 495.27,667.10 499.24,667.81 C488.92,666.55 478.51,664.45 468.87,661.59 C467.29,661.12 465.72,660.64 464.17,660.12 ZM 429.33 644.04 C436.27,648.06 443.04,651.35 444.76,651.21 C447.43,650.99 451.34,652.80 454.92,655.92 C456.07,656.92 458.23,658.01 460.80,658.98 C449.78,655.11 439.30,650.13 429.33,644.04 ZM 569.09 524.00 L 568.96 545.67 C569.05,527.61 568.83,527.35 566.86,526.13 C562.53,523.46 562.02,525.75 562.00,552.83 L 562.00 524.00 ZM 621.26 346.95 C620.58,346.70 618.52,345.47 616.35,344.00 C613.91,342.36 610.32,340.81 608.37,340.57 C606.06,340.28 603.71,338.98 601.59,336.81 C600.37,335.56 598.71,334.31 596.48,333.01 C601.03,335.24 604.90,337.00 605.29,337.00 C605.72,337.00 609.37,339.25 613.41,342.00 C617.10,344.52 620.43,346.61 621.26,346.95 ZM 582.45 657.71 C583.70,657.20 585.04,656.64 586.50,656.03 C592.00,653.72 597.29,651.59 598.25,651.30 C599.21,651.01 600.00,650.45 600.00,650.07 C600.00,648.08 604.39,644.99 607.29,644.94 C608.76,644.92 610.89,644.17 613.57,642.75 C607.02,646.94 600.95,650.37 597.68,651.58 C595.93,652.22 590.45,654.42 585.50,656.47 C584.46,656.90 583.44,657.31 582.45,657.71 ZM 343.66 472.92 C345.76,452.12 351.39,433.97 361.59,414.12 C361.08,415.23 360.50,416.45 359.84,417.83 C357.00,423.70 354.67,429.84 354.67,431.49 C354.67,433.13 353.33,436.73 351.70,439.49 C348.33,445.18 345.32,458.60 343.66,472.92 ZM 425.71 343.14 C439.95,334.11 456.36,327.15 475.03,322.23 C457.29,326.91 442.50,333.19 437.71,338.15 C436.73,339.17 434.76,340.00 433.34,340.00 C431.78,340.00 429.10,341.14 425.71,343.14 ZM 561.46 406.71 C561.56,404.83 561.67,403.38 561.79,402.48 L 565.09 402.20 L 568.68 401.90 L 568.27 427.70 C568.19,432.67 568.09,437.39 567.99,441.45 C568.08,437.80 568.15,433.63 568.21,429.27 L 568.54 405.03 L 566.02 404.17 L 566.01 404.17 C564.62,403.69 563.62,403.35 562.90,403.66 C562.18,403.96 561.73,404.91 561.45,407.03 ZM 343.06 508.25 C344.56,523.53 348.14,542.24 350.96,548.52 C349.27,544.76 347.22,536.69 345.51,527.00 C344.14,519.32 343.42,514.22 343.06,508.25 ZM 698.76 488.57 C698.93,499.49 698.33,512.09 697.11,520.86 C698.28,512.27 698.89,499.50 698.76,488.57 ZM 584.90 327.56 C583.38,326.95 581.75,326.32 580.00,325.66 C579.33,325.40 578.69,325.17 578.08,324.95 C580.26,325.68 582.48,326.54 584.90,327.56 ZM 680.84 411.96 C680.91,413.94 681.28,415.63 682.26,418.22 C682.34,418.46 682.42,418.70 682.51,418.94 C681.35,415.97 680.91,414.17 680.84,411.96 ZM 365.00 401.68 C364.99,398.55 364.58,396.00 364.07,396.00 C364.58,396.00 365.00,398.51 365.00,401.58 C365.00,401.61 365.00,401.65 365.00,401.68 ZM 632.91 629.03 C633.42,628.61 633.94,628.19 634.46,627.75 C635.48,626.90 636.41,626.14 637.26,625.44 C636.34,626.19 635.33,627.03 634.22,627.96 C633.80,628.31 633.36,628.67 632.91,629.03 ZM 565.28 455.96 C565.94,455.94 566.55,455.77 566.96,455.45 C566.55,455.78 565.94,455.95 565.28,455.96 ZM 410.80 354.03 C410.56,354.23 410.33,354.43 410.09,354.63 C405.70,358.36 400.83,362.44 398.78,364.12 C400.83,362.44 405.71,358.35 410.11,354.61 C410.34,354.42 410.57,354.22 410.80,354.03 ZM 567.91 580.75 C567.70,581.32 567.33,581.80 566.87,582.17 C567.33,581.80 567.70,581.32 567.91,580.75 C567.95,580.64 567.99,580.44 568.04,580.16 C567.99,580.44 567.95,580.64 567.91,580.75 Z" fill="rgb(204,246,250)"/>
<path d="M 0.00 496.00 L 0.00 0.00 L 528.00 0.00 L 1056.00 0.00 L 1056.00 496.00 L 1056.00 992.00 L 528.00 992.00 L 0.00 992.00 L 0.00 496.00 ZM 543.00 675.49 C563.42,672.34 571.02,670.49 585.00,665.30 C596.15,661.16 613.54,652.47 622.31,646.67 C637.40,636.67 653.81,622.12 652.46,619.94 C652.14,619.42 650.32,619.00 648.41,619.00 C645.52,619.00 643.21,620.45 634.46,627.75 C621.42,638.64 611.58,644.87 607.29,644.94 C604.39,644.99 600.00,648.08 600.00,650.07 C600.00,650.45 599.21,651.01 598.25,651.30 C597.29,651.59 592.00,653.72 586.50,656.03 C573.30,661.57 569.01,662.80 565.01,662.21 C562.74,661.88 561.32,662.21 560.57,663.24 C559.96,664.07 557.67,665.01 555.48,665.33 C553.29,665.65 547.22,666.65 542.00,667.55 C534.56,668.83 531.58,668.95 528.24,668.09 C522.87,666.72 518.57,666.72 513.64,668.08 C507.84,669.69 493.23,667.58 490.80,664.77 C489.17,662.89 488.59,662.79 485.27,663.81 C482.21,664.75 481.41,664.69 480.74,663.49 C480.19,662.52 478.35,662.06 475.21,662.11 C469.42,662.19 458.18,658.76 454.92,655.92 C451.34,652.80 447.43,650.99 444.76,651.21 C441.80,651.45 423.81,641.49 415.86,635.20 C412.59,632.62 407.02,627.91 403.48,624.75 C398.27,620.09 396.39,619.00 393.58,619.00 C386.79,619.00 387.69,621.14 398.74,631.23 C420.14,650.77 450.55,666.05 481.16,672.65 C501.06,676.94 526.15,678.10 543.00,675.49 ZM 545.00 661.48 C573.73,656.77 592.92,649.92 612.73,637.33 C622.08,631.39 634.00,621.57 634.00,619.80 C634.00,619.36 631.98,619.00 629.51,619.00 C625.57,619.00 623.98,619.77 616.42,625.36 C596.88,639.81 577.39,648.12 550.00,653.68 C536.67,656.38 502.94,656.16 489.00,653.28 C478.82,651.17 465.64,647.25 459.50,644.51 C457.85,643.77 454.48,642.37 452.00,641.40 C444.30,638.37 425.43,627.03 418.67,621.37 C416.54,619.58 414.64,619.00 410.92,619.00 C408.22,619.00 406.00,619.37 406.00,619.83 C406.00,620.90 416.71,629.48 425.00,635.05 C435.50,642.10 452.74,650.50 463.50,653.79 C483.18,659.81 491.71,661.64 504.20,662.50 C509.87,662.89 514.72,663.44 515.00,663.71 C515.78,664.50 535.60,663.03 545.00,661.48 ZM 521.32 610.75 C522.88,609.61 523.01,606.67 522.77,577.00 L 522.50 544.50 L 514.95 544.00 C502.73,543.19 498.87,539.11 498.61,526.74 C498.46,519.45 498.11,518.89 492.82,517.63 C490.44,517.07 490.10,517.31 489.82,519.75 L 489.50 522.50 L 443.36 522.76 L 397.23 523.02 L 396.78 519.97 C396.54,518.29 396.72,516.68 397.18,516.39 C397.65,516.10 418.01,516.01 442.43,516.18 C466.85,516.36 487.16,516.18 487.55,515.78 C487.95,515.39 487.44,513.81 486.42,512.28 C485.13,510.34 484.56,507.62 484.54,503.25 L 484.50 497.00 L 478.50 496.90 C475.20,496.85 455.40,496.74 434.50,496.65 L 396.50 496.50 L 396.19 493.23 L 395.87 489.96 L 443.97 490.02 C470.43,490.05 492.50,489.81 493.04,489.48 C493.57,489.15 494.00,486.64 494.00,483.90 C494.00,476.34 498.78,472.70 507.17,473.86 C507.54,473.91 509.12,471.94 510.67,469.48 C512.23,467.02 513.80,465.00 514.16,465.00 C514.52,465.00 516.67,463.79 518.93,462.31 L 523.04 459.62 L 522.77 439.06 L 522.50 418.50 L 500.25 418.23 L 478.00 417.96 L 477.88 412.73 C477.81,409.85 477.85,400.19 477.98,391.25 L 478.21 375.00 L 425.10 375.00 L 371.98 375.00 L 372.41 423.25 C372.64,449.79 372.87,503.11 372.92,541.75 L 373.00 612.00 L 446.31 612.00 C503.38,612.00 520.00,611.72 521.32,610.75 ZM 672.21 610.15 C673.04,609.36 673.09,601.41 673.04,472.25 L 673.00 375.00 L 602.00 375.00 L 531.00 375.00 L 530.91 379.75 C530.87,382.36 530.90,401.48 530.99,422.24 L 531.16 459.97 L 538.65 467.68 C545.29,474.52 546.35,475.26 548.05,474.20 C551.24,472.21 555.85,472.76 558.55,475.45 C560.61,477.52 561.00,478.87 561.00,483.92 C561.00,488.88 561.52,490.76 564.00,494.66 C568.17,501.24 568.16,507.14 563.95,512.25 C562.10,514.48 559.37,516.41 557.04,517.11 L 553.19 518.26 L 552.48 526.38 C552.09,530.85 551.14,535.73 550.37,537.23 C548.49,540.89 543.69,543.31 537.00,543.96 L 531.50 544.50 L 531.24 578.39 L 530.97 612.28 L 601.24 611.56 C639.88,611.16 671.82,610.53 672.21,610.15 ZM 365.00 586.39 C365.00,581.70 364.18,579.06 360.05,570.51 C357.33,564.86 354.78,558.96 354.38,557.40 C353.99,555.83 352.45,551.84 350.96,548.52 C347.71,541.28 343.44,517.48 342.52,501.50 C341.34,480.72 346.02,449.09 351.70,439.49 C353.33,436.73 354.67,433.13 354.67,431.49 C354.67,429.84 357.00,423.70 359.84,417.83 C364.16,408.89 365.00,406.25 365.00,401.58 C365.00,398.51 364.58,396.00 364.07,396.00 C362.48,396.00 359.33,401.18 352.68,414.78 C338.86,443.04 333.11,473.43 335.16,507.50 C336.47,529.26 343.54,555.43 353.46,575.21 C362.73,593.71 365.00,595.91 365.00,586.39 ZM 689.03 572.50 C695.77,558.46 697.52,553.73 700.93,540.30 C706.00,520.30 706.50,515.97 706.44,492.50 C706.40,475.08 706.01,468.94 704.61,463.00 C703.64,458.88 702.24,452.55 701.50,448.94 C699.29,438.05 694.28,424.51 687.29,410.54 C681.88,399.73 681.58,399.59 681.00,407.59 C680.53,414.05 680.77,415.13 684.73,424.21 C687.06,429.56 688.70,434.63 688.37,435.48 C688.04,436.34 688.24,438.27 688.81,439.77 C689.37,441.27 690.61,445.09 691.56,448.25 C692.50,451.41 693.63,454.00 694.07,454.00 C695.15,454.00 696.72,462.37 698.10,475.50 C699.45,488.30 698.69,512.68 696.58,524.26 C694.91,533.42 689.18,551.22 684.40,562.08 C681.41,568.90 681.00,570.82 681.03,578.16 C681.06,585.95 681.17,586.37 682.65,584.50 C683.52,583.40 686.39,578.00 689.03,572.50 ZM 364.96 557.25 C364.93,551.74 364.33,547.02 363.34,544.50 C362.47,542.30 360.62,535.55 359.23,529.50 C356.89,519.31 356.70,516.62 356.66,493.00 L 356.61 467.50 L 360.49 453.50 C364.37,439.51 366.18,424.78 364.25,422.85 C363.11,421.71 356.92,437.18 353.51,449.67 C348.99,466.26 347.72,478.45 348.30,499.50 C348.73,515.18 349.28,520.42 351.42,529.50 C355.20,545.56 362.29,566.00 364.09,566.00 C364.59,566.00 364.98,562.06 364.96,557.25 ZM 685.66 545.44 C686.92,541.62 688.68,534.90 689.58,530.50 C690.47,526.10 691.61,520.70 692.11,518.50 C692.61,516.30 693.29,507.52 693.62,499.00 C694.31,480.94 692.75,467.23 687.92,449.07 C684.70,436.97 683.53,434.00 681.96,434.00 C680.22,434.00 680.95,450.24 683.18,461.00 C685.00,469.77 685.37,474.96 685.42,492.50 C685.47,510.56 685.17,514.99 683.24,524.15 C680.74,536.02 680.10,553.47 682.19,552.77 C682.84,552.55 684.40,549.25 685.66,545.44 ZM 540.56 532.58 C542.26,531.33 542.51,529.82 542.61,520.22 C542.67,514.20 543.03,508.76 543.42,508.13 C543.81,507.49 546.71,507.00 550.09,507.00 C554.36,507.00 556.22,506.59 556.62,505.56 C557.38,503.57 556.49,502.23 548.49,493.35 C533.63,476.83 527.44,470.49 525.91,470.20 C523.69,469.78 494.00,501.20 494.00,503.97 C494.00,505.47 496.20,506.44 502.00,507.50 L 507.50 508.50 L 507.79 519.46 C508.18,534.43 507.67,534.00 524.96,534.00 C535.18,534.00 539.11,533.64 540.56,532.58 ZM 516.82 411.11 C517.55,411.05 518.00,410.37 517.82,409.61 C517.39,407.76 487.44,377.00 486.07,377.00 C485.35,377.00 485.00,382.63 485.00,393.97 L 485.00 410.94 L 497.75 411.22 C509.33,411.47 512.87,411.45 516.82,411.11 ZM 398.36 364.46 C400.09,363.06 405.37,358.64 410.09,354.63 C420.31,345.96 429.78,340.00 433.34,340.00 C434.76,340.00 436.73,339.17 437.71,338.15 C442.72,332.96 458.70,326.31 477.55,321.58 C493.68,317.53 500.43,316.79 521.00,316.82 C537.03,316.84 542.37,317.23 551.00,319.01 C556.78,320.21 562.17,321.29 563.00,321.42 C571.17,322.74 574.40,323.54 580.00,325.66 C591.92,330.16 598.33,333.47 601.59,336.81 C603.71,338.98 606.06,340.28 608.37,340.57 C610.32,340.81 613.91,342.36 616.35,344.00 C618.79,345.65 621.09,347.00 621.45,347.00 C621.82,347.00 625.97,350.26 630.68,354.25 C644.79,366.19 646.18,367.12 649.48,366.80 C655.11,366.24 653.68,363.64 642.42,353.98 C615.33,330.73 585.95,317.02 550.29,311.00 C535.50,308.50 507.92,308.27 492.74,310.51 C464.68,314.66 434.80,326.69 412.50,342.81 C399.69,352.07 386.41,364.24 387.39,365.82 C388.71,367.96 395.01,367.18 398.36,364.46 ZM 421.11 362.14 C424.41,359.47 431.48,354.79 436.83,351.75 C460.05,338.49 484.32,331.36 512.78,329.43 C528.90,328.33 556.59,332.10 573.00,337.63 C585.94,341.98 609.80,354.34 618.00,360.94 C624.47,366.14 626.07,366.97 629.69,366.98 C635.50,367.01 636.00,365.36 631.39,361.36 C612.79,345.22 581.61,330.63 553.50,324.93 C540.45,322.28 513.80,321.28 500.35,322.94 C467.05,327.05 436.64,339.65 411.73,359.68 C408.00,362.67 405.22,365.54 405.54,366.06 C405.86,366.58 408.14,367.00 410.62,367.00 C414.50,367.00 415.92,366.34 421.11,362.14 ZM 396.39 575.57 C396.08,574.77 395.99,573.30 396.18,572.31 C396.51,570.61 398.49,570.50 429.51,570.50 L 462.50 570.50 L 462.50 573.50 L 462.50 576.50 L 429.72 576.76 C401.79,576.99 396.87,576.81 396.39,575.57 ZM 396.00 547.01 L 396.00 544.00 L 443.07 544.00 L 490.13 544.00 L 489.82 546.75 L 489.50 549.50 L 442.75 549.76 L 396.00 550.02 L 396.00 547.01 ZM 396.00 466.47 L 396.00 462.95 L 442.14 463.22 C483.33,463.47 488.39,463.67 489.30,465.11 C489.86,466.00 490.04,467.46 489.69,468.36 C489.12,469.85 484.69,470.00 442.53,470.00 L 396.00 470.00 L 396.00 466.47 ZM 409.00 445.50 C404.98,441.36 403.15,441.15 400.03,444.47 C397.30,447.37 396.00,446.94 396.00,443.14 C396.00,441.28 397.24,439.19 399.91,436.59 C404.08,432.52 405.02,432.54 408.39,436.79 C411.71,440.97 414.03,441.11 417.58,437.35 C419.31,435.51 421.56,434.00 422.58,434.00 C423.59,434.00 426.09,435.63 428.13,437.63 L 431.84 441.25 L 435.57 437.63 C437.63,435.63 439.83,434.00 440.47,434.00 C441.10,434.00 442.88,435.31 444.41,436.91 C448.43,441.10 450.12,441.19 453.96,437.39 C457.73,433.67 459.00,433.81 459.00,437.93 C459.00,439.98 457.79,441.86 454.52,444.87 C452.06,447.14 449.67,449.00 449.22,449.00 C448.76,449.00 446.87,447.42 445.00,445.50 C443.13,443.58 441.19,442.00 440.68,442.00 C440.16,442.00 438.00,443.58 435.87,445.50 C433.74,447.42 431.63,449.00 431.19,449.00 C430.75,449.00 428.87,447.42 427.00,445.50 C425.13,443.58 423.19,442.00 422.68,442.00 C422.16,442.00 420.00,443.58 417.87,445.50 C415.74,447.42 413.63,449.00 413.19,449.00 C412.75,449.00 410.87,447.42 409.00,445.50 ZM 396.18 415.72 C395.59,415.01 395.24,413.55 395.40,412.47 C395.68,410.56 396.63,410.50 425.58,410.50 C453.56,410.50 455.49,410.62 455.82,412.30 C456.69,416.81 455.44,417.00 425.50,417.00 C403.72,417.00 397.00,416.71 396.18,415.72 ZM 562.67 582.33 C562.30,581.97 562.00,569.68 562.00,555.02 C562.00,525.88 562.42,523.39 566.86,526.13 C569.07,527.49 569.08,527.67 568.92,553.00 C568.83,567.03 568.38,579.51 567.91,580.75 C567.11,582.88 564.12,583.78 562.67,582.33 ZM 582.20 581.80 C581.28,580.88 581.00,559.42 581.00,491.30 C581.00,396.24 580.77,400.82 585.42,402.61 C586.84,403.15 587.00,411.95 587.00,491.91 C587.00,579.55 586.89,583.00 584.00,583.00 C583.67,583.00 582.86,582.46 582.20,581.80 ZM 600.12 581.72 C598.58,580.18 598.52,403.42 600.06,402.46 C600.64,402.11 602.21,402.09 603.56,402.42 L 606.00 403.04 L 605.98 491.27 C605.98,539.80 605.64,579.98 605.23,580.57 C604.04,582.32 601.33,582.93 600.12,581.72 ZM 619.55 581.08 C619.11,580.37 618.50,409.35 618.91,403.18 C618.97,402.35 620.01,401.98 621.75,402.18 L 624.50 402.50 L 624.77 490.00 C624.93,538.12 624.81,578.51 624.51,579.75 C623.96,582.02 620.67,582.90 619.55,581.08 ZM 638.43 580.88 C637.30,579.06 637.66,404.94 638.80,403.80 C639.34,403.26 640.62,402.97 641.64,403.17 C643.43,403.51 643.51,406.69 643.76,490.82 C643.93,549.85 643.67,578.74 642.97,580.06 C641.82,582.20 639.50,582.62 638.43,580.88 ZM 562.20 454.80 C561.33,453.93 561.00,446.77 561.00,428.88 C561.00,402.43 561.00,402.45 566.02,404.17 L 568.54 405.03 L 568.21 429.27 C568.03,442.60 567.70,454.06 567.47,454.75 C566.95,456.34 563.77,456.37 562.20,454.80 Z" fill="rgb(254,254,254)"/>
</g>
</svg>